<?xml version="1.0" encoding="UTF-8" standalone="no"?><svg xmlns="http://www.w3.org/2000/svg" xmlns:xlink="http://www.w3.org/1999/xlink" contentScriptType="application/ecmascript" contentStyleType="text/css" height="260px" preserveAspectRatio="none" style="width:277px;height:260px;" version="1.1" viewBox="0 0 277 260" width="277px" zoomAndPan="magnify"><defs><filter height="300%" id="f1foh2dvjef662" width="300%" x="-1" y="-1"><feGaussianBlur result="blurOut" stdDeviation="2.0"/><feColorMatrix in="blurOut" result="blurOut2" type="matrix" values="0 0 0 0 0 0 0 0 0 0 0 0 0 0 0 0 0 0 .4 0"/><feOffset dx="4.0" dy="4.0" in="blurOut2" result="blurOut3"/><feBlend in="SourceGraphic" in2="blurOut3" mode="normal"/></filter></defs><g><rect fill="#FFBBBB" filter="url(#f1foh2dvjef662)" height="131.4001" style="stroke: #A80036; stroke-width: 1.0;" width="10" x="96.5" y="70.3999"/><rect fill="#E9967A" filter="url(#f1foh2dvjef662)" height="64.2" style="stroke: #A80036; stroke-width: 1.0;" width="10" x="101.5" y="108"/><rect fill="#FFFFFF" filter="url(#f1foh2dvjef662)" height="29.6" style="stroke: #A80036; stroke-width: 1.0;" width="10" x="251.5" y="142.6"/><line style="stroke: #A80036; stroke-width: 1.0; stroke-dasharray: 5.0,5.0;" x1="31" x2="31" y1="38.7999" y2="219.8"/><line style="stroke: #A80036; stroke-width: 1.0; stroke-dasharray: 5.0,5.0;" x1="101" x2="101" y1="38.7999" y2="219.8"/><line style="stroke: #A80036; stroke-width: 1.0; stroke-dasharray: 5.0,5.0;" x1="256" x2="256" y1="38.7999" y2="219.8"/><rect fill="#FEFECE" filter="url(#f1foh2dvjef662)" height="30.7999" style="stroke: #A80036; stroke-width: 1.5;" width="43" x="8" y="3"/><text fill="#000000" font-family="sans-serif" font-size="14" lengthAdjust="spacingAndGlyphs" textLength="29" x="15" y="23.9999">User</text><rect fill="#FEFECE" filter="url(#f1foh2dvjef662)" height="30.7999" style="stroke: #A80036; stroke-width: 1.5;" width="43" x="8" y="218.8"/><text fill="#000000" font-family="sans-serif" font-size="14" lengthAdjust="spacingAndGlyphs" textLength="29" x="15" y="239.7999">User</text><rect fill="#FEFECE" filter="url(#f1foh2dvjef662)" height="30.7999" style="stroke: #A80036; stroke-width: 1.5;" width="23" x="88" y="3"/><text fill="#000000" font-family="sans-serif" font-size="14" lengthAdjust="spacingAndGlyphs" textLength="9" x="95" y="23.9999">A</text><rect fill="#FEFECE" filter="url(#f1foh2dvjef662)" height="30.7999" style="stroke: #A80036; stroke-width: 1.5;" width="23" x="88" y="218.8"/><text fill="#000000" font-family="sans-serif" font-size="14" lengthAdjust="spacingAndGlyphs" textLength="9" x="95" y="239.7999">A</text><rect fill="#FEFECE" filter="url(#f1foh2dvjef662)" height="30.7999" style="stroke: #A80036; stroke-width: 1.5;" width="23" x="243" y="3"/><text fill="#000000" font-family="sans-serif" font-size="14" lengthAdjust="spacingAndGlyphs" textLength="9" x="250" y="23.9999">B</text><rect fill="#FEFECE" filter="url(#f1foh2dvjef662)" height="30.7999" style="stroke: #A80036; stroke-width: 1.5;" width="23" x="243" y="218.8"/><text fill="#000000" font-family="sans-serif" font-size="14" lengthAdjust="spacingAndGlyphs" textLength="9" x="250" y="239.7999">B</text><rect fill="#FFBBBB" filter="url(#f1foh2dvjef662)" height="131.4001" style="stroke: #A80036; stroke-width: 1.0;" width="10" x="96.5" y="70.3999"/><rect fill="#E9967A" filter="url(#f1foh2dvjef662)" height="64.2" style="stroke: #A80036; stroke-width: 1.0;" width="10" x="101.5" y="108"/><rect fill="#FFFFFF" filter="url(#f1foh2dvjef662)" height="29.6" style="stroke: #A80036; stroke-width: 1.0;" width="10" x="251.5" y="142.6"/><polygon fill="#A80036" points="84.5,66.3999,94.5,70.3999,84.5,74.3999,88.5,70.3999" style="stroke: #A80036; stroke-width: 1.0;"/><line style="stroke: #A80036; stroke-width: 1.0;" x1="31.5" x2="90.5" y1="70.3999" y2="70.3999"/><text fill="#000000" font-family="sans-serif" font-size="13" lengthAdjust="spacingAndGlyphs" textLength="46" x="38.5" y="65.7999">DoWork</text><line style="stroke: #A80036; stroke-width: 1.0;" x1="106.5" x2="153.5" y1="95" y2="95"/><line style="stroke: #A80036; stroke-width: 1.0;" x1="153.5" x2="153.5" y1="95" y2="108"/><line style="stroke: #A80036; stroke-width: 1.0;" x1="112.5" x2="153.5" y1="108" y2="108"/><polygon fill="#A80036" points="122.5,104,112.5,108,122.5,112,118.5,108" style="stroke: #A80036; stroke-width: 1.0;"/><text fill="#000000" font-family="sans-serif" font-size="13" lengthAdjust="spacingAndGlyphs" textLength="66" x="118.5" y="90.4">Internal call</text><polygon fill="#A80036" points="239.5,138.6,249.5,142.6,239.5,146.6,243.5,142.6" style="stroke: #A80036; stroke-width: 1.0;"/><line style="stroke: #A80036; stroke-width: 1.0;" x1="111.5" x2="245.5" y1="142.6" y2="142.6"/><text fill="#000000" font-family="sans-serif" font-size="13" lengthAdjust="spacingAndGlyphs" textLength="121" x="118.5" y="138">&lt;&lt; createRequest &gt;&gt;</text><polygon fill="#A80036" points="117.5,168.2,107.5,172.2,117.5,176.2,113.5,172.2" style="stroke: #A80036; stroke-width: 1.0;"/><line style="stroke: #A80036; stroke-width: 1.0; stroke-dasharray: 2.0,2.0;" x1="111.5" x2="255.5" y1="172.2" y2="172.2"/><text fill="#000000" font-family="sans-serif" font-size="13" lengthAdjust="spacingAndGlyphs" textLength="92" x="123.5" y="167.6">RequestCreated</text><polygon fill="#A80036" points="42.5,197.8,32.5,201.8,42.5,205.8,38.5,201.8" style="stroke: #A80036; stroke-width: 1.0;"/><line style="stroke: #A80036; stroke-width: 1.0;" x1="36.5" x2="100.5" y1="201.8" y2="201.8"/><text fill="#000000" font-family="sans-serif" font-size="13" lengthAdjust="spacingAndGlyphs" textLength="30" x="48.5" y="197.2">Done</text><!--MD5=[5942b931b31f4f4ca2054a3de11f2a1c]
@startuml
participant User

User -> A: DoWork
activate A #FFBBBB

A -> A: Internal call
activate A #DarkSalmon

A -> B: << createRequest >>
activate B

B - -> A: RequestCreated
deactivate B
deactivate A
A -> User: Done
deactivate A
@enduml

PlantUML version 1.2020.08(Sun Apr 26 14:08:22 GMT 2020)
(GPL source distribution)
Java Runtime: OpenJDK Runtime Environment
JVM: OpenJDK 64-Bit Server VM
Java Version: 11.0.6+10
Operating System: Linux
Default Encoding: UTF-8
Language: en
Country: US
--></g></svg>