<?xml version="1.0" encoding="UTF-8" standalone="no"?><svg xmlns="http://www.w3.org/2000/svg" xmlns:xlink="http://www.w3.org/1999/xlink" contentScriptType="application/ecmascript" contentStyleType="text/css" height="156px" preserveAspectRatio="none" style="width:180px;height:156px;" version="1.1" viewBox="0 0 180 156" width="180px" zoomAndPan="magnify"><defs/><g><text fill="#000000" font-family="sans-serif" font-size="12" lengthAdjust="spacingAndGlyphs" textLength="71" x="6" y="18.0001">Just plain text</text><rect fill="#EEEEEE" height="18.4001" rx="5" ry="5" style="stroke: #000000; stroke-width: 2.5;" width="140" x="8.5" y="24.9001"/><text fill="#000000" font-family="sans-serif" font-size="12" lengthAdjust="spacingAndGlyphs" textLength="88" x="34.5" y="38.9002">This is my button</text><text fill="#000000" font-family="sans-serif" font-size="12" lengthAdjust="spacingAndGlyphs" textLength="88" x="26" y="59.8003">Unchecked radio</text><ellipse cx="13" cy="55.0003" fill="none" rx="5" ry="5" style="stroke: #000000; stroke-width: 1.5;"/><text fill="#000000" font-family="sans-serif" font-size="12" lengthAdjust="spacingAndGlyphs" textLength="76" x="26" y="76.2004">Checked radio</text><ellipse cx="13" cy="71.4004" fill="none" rx="5" ry="5" style="stroke: #000000; stroke-width: 1.5;"/><ellipse cx="13" cy="71.4004" fill="#000000" rx="2" ry="2" style="stroke: #000000; stroke-width: 1.5;"/><text fill="#000000" font-family="sans-serif" font-size="12" lengthAdjust="spacingAndGlyphs" textLength="80" x="26" y="92.6005">Unchecked box</text><rect fill="none" height="10" style="stroke: #000000; stroke-width: 1.5;" width="10" x="8" y="82.8005"/><text fill="#000000" font-family="sans-serif" font-size="12" lengthAdjust="spacingAndGlyphs" textLength="68" x="26" y="109.0006">Checked box</text><rect fill="none" height="10" style="stroke: #000000; stroke-width: 1.5;" width="10" x="8" y="99.2006"/><polygon fill="#000000" points="9,103.0005,12,106.0005,19,97.0005,12,104.0005" style="stroke: #000000; stroke-width: 1.5;"/><text fill="#000000" font-family="sans-serif" font-size="12" lengthAdjust="spacingAndGlyphs" textLength="73" x="9" y="125.4007">Enter text here</text><line style="stroke: #000000; stroke-width: 1.0;" x1="7" x2="154" y1="127.8007" y2="127.8007"/><line style="stroke: #000000; stroke-width: 1.0;" x1="7" x2="7" y1="124.8007" y2="126.8007"/><line style="stroke: #000000; stroke-width: 1.0;" x1="154" x2="154" y1="124.8007" y2="126.8007"/><rect fill="#EEEEEE" height="17.4001" style="stroke: #000000; stroke-width: 1.0;" width="159" x="6" y="131.8007"/><text fill="#000000" font-family="sans-serif" font-size="12" lengthAdjust="spacingAndGlyphs" textLength="87" x="8" y="145.8008">This is a droplist</text><line style="stroke: #000000; stroke-width: 1.0;" x1="154" x2="154" y1="131.8007" y2="149.2008"/><polygon fill="#000000" points="157,137.8007,163,137.8007,160,144.2008" style="stroke: #000000; stroke-width: 1.0;"/></g></svg>