<?xml version="1.0" encoding="UTF-8" standalone="no"?><svg xmlns="http://www.w3.org/2000/svg" xmlns:xlink="http://www.w3.org/1999/xlink" contentScriptType="application/ecmascript" contentStyleType="text/css" height="161px" preserveAspectRatio="none" style="width:506px;height:161px;" version="1.1" viewBox="0 0 506 161" width="506px" zoomAndPan="magnify"><defs><filter height="300%" id="fev9lhf7selnn" width="300%" x="-1" y="-1"><feGaussianBlur result="blurOut" stdDeviation="2.0"/><feColorMatrix in="blurOut" result="blurOut2" type="matrix" values="0 0 0 0 0 0 0 0 0 0 0 0 0 0 0 0 0 0 .4 0"/><feOffset dx="4.0" dy="4.0" in="blurOut2" result="blurOut3"/><feBlend in="SourceGraphic" in2="blurOut3" mode="normal"/></filter></defs><g><rect fill="#FEFECE" filter="url(#fev9lhf7selnn)" height="36.7999" rx="12.5" ry="12.5" style="stroke: #A80036; stroke-width: 1.5;" width="77" x="10" y="66.9998"/><text fill="#000000" font-family="sans-serif" font-size="14" lengthAdjust="spacingAndGlyphs" textLength="57" x="20" y="90.9998">root node</text><rect fill="#FEFECE" filter="url(#fev9lhf7selnn)" height="36.7999" rx="12.5" ry="12.5" style="stroke: #A80036; stroke-width: 1.5;" width="144" x="137" y="38.5999"/><text fill="#000000" font-family="sans-serif" font-size="14" lengthAdjust="spacingAndGlyphs" textLength="124" x="147" y="62.5998">some first level node</text><text fill="#000000" font-family="sans-serif" font-size="14" lengthAdjust="spacingAndGlyphs" textLength="109" x="334" y="24.9999">second level node</text><path d="M281,56.9998 L291,56.9998 C306,56.9998 306,19.4 321,19.4 L331,19.4 " fill="none" style="stroke: #A80036; stroke-width: 1.0;"/><text fill="#000000" font-family="sans-serif" font-size="14" lengthAdjust="spacingAndGlyphs" textLength="160" x="334" y="43.7999">another second level node</text><path d="M281,56.9998 L291,56.9998 C306,56.9998 306,38.1999 321,38.1999 L331,38.1999 " fill="none" style="stroke: #A80036; stroke-width: 1.0;"/><text fill="#000000" font-family="sans-serif" font-size="14" lengthAdjust="spacingAndGlyphs" textLength="18" x="334" y="62.5998">foo</text><path d="M281,56.9998 L291,56.9998 C306,56.9998 306,56.9998 321,56.9998 L331,56.9998 " fill="none" style="stroke: #A80036; stroke-width: 1.0;"/><text fill="#000000" font-family="sans-serif" font-size="14" lengthAdjust="spacingAndGlyphs" textLength="21" x="334" y="81.3997">bar</text><path d="M281,56.9998 L291,56.9998 C306,56.9998 306,75.7997 321,75.7997 L331,75.7997 " fill="none" style="stroke: #A80036; stroke-width: 1.0;"/><text fill="#000000" font-family="sans-serif" font-size="14" lengthAdjust="spacingAndGlyphs" textLength="39" x="334" y="100.1996">foobar</text><path d="M281,56.9998 L291,56.9998 C306,56.9998 306,94.5997 321,94.5997 L331,94.5997 " fill="none" style="stroke: #A80036; stroke-width: 1.0;"/><path d="M87,85.3998 L97,85.3998 C112,85.3998 112,56.9998 127,56.9998 L137,56.9998 " fill="none" style="stroke: #A80036; stroke-width: 1.0;"/><rect fill="#FEFECE" filter="url(#fev9lhf7selnn)" height="36.7999" rx="12.5" ry="12.5" style="stroke: #A80036; stroke-width: 1.5;" width="159" x="137" y="113.9996"/><text fill="#000000" font-family="sans-serif" font-size="14" lengthAdjust="spacingAndGlyphs" textLength="139" x="147" y="137.9996">another first level node</text><path d="M87,85.3998 L97,85.3998 C112,85.3998 112,132.3996 127,132.3996 L137,132.3996 " fill="none" style="stroke: #A80036; stroke-width: 1.0;"/><!--MD5=[0e5cb6b6ed71b4facff11a9c2d9cb977]
@startmindmap
* root node
** some first level node
***_ second level node
***_ another second level node
***_ foo
***_ bar
***_ foobar
** another first level node
@endmindmap

PlantUML version 1.2020.08(Sun Apr 26 14:08:22 GMT 2020)
(GPL source distribution)
Java Runtime: OpenJDK Runtime Environment
JVM: OpenJDK 64-Bit Server VM
Java Version: 11.0.6+10
Operating System: Linux
Default Encoding: UTF-8
Language: en
Country: US
--></g></svg>