<?xml version="1.0" encoding="UTF-8" standalone="no"?><svg xmlns="http://www.w3.org/2000/svg" xmlns:xlink="http://www.w3.org/1999/xlink" contentScriptType="application/ecmascript" contentStyleType="text/css" height="215px" preserveAspectRatio="none" style="width:304px;height:215px;" version="1.1" viewBox="0 0 304 215" width="304px" zoomAndPan="magnify"><defs><filter height="300%" id="fdq77elnyp9h8" width="300%" x="-1" y="-1"><feGaussianBlur result="blurOut" stdDeviation="2.0"/><feColorMatrix in="blurOut" result="blurOut2" type="matrix" values="0 0 0 0 0 0 0 0 0 0 0 0 0 0 0 0 0 0 .4 0"/><feOffset dx="4.0" dy="4.0" in="blurOut2" result="blurOut3"/><feBlend in="SourceGraphic" in2="blurOut3" mode="normal"/></filter></defs><g><ellipse cx="124.25" cy="20" fill="#000000" filter="url(#fdq77elnyp9h8)" rx="10" ry="10" style="stroke: none; stroke-width: 1.0;"/><polygon fill="#FEFECE" filter="url(#fdq77elnyp9h8)" points="79.75,50,168.75,50,180.75,62,168.75,74,79.75,74,67.75,62,79.75,50" style="stroke: #A80036; stroke-width: 1.5;"/><text fill="#000000" font-family="sans-serif" font-size="11" lengthAdjust="spacingAndGlyphs" textLength="89" x="79.75" y="66.4">Graphviz installed?</text><text fill="#000000" font-family="sans-serif" font-size="11" lengthAdjust="spacingAndGlyphs" textLength="16" x="51.75" y="59.8">yes</text><text fill="#000000" font-family="sans-serif" font-size="11" lengthAdjust="spacingAndGlyphs" textLength="12" x="180.75" y="59.8">no</text><rect fill="#FEFECE" filter="url(#fdq77elnyp9h8)" height="48.8002" rx="12.5" ry="12.5" style="stroke: #A80036; stroke-width: 1.5;" width="77" x="10" y="84"/><text fill="#000000" font-family="sans-serif" font-size="12" lengthAdjust="spacingAndGlyphs" textLength="57" x="20" y="106.0001">process all</text><text fill="#000000" font-family="sans-serif" font-size="12" lengthAdjust="spacingAndGlyphs" textLength="51" x="20" y="120.4002">diagrams</text><rect fill="#FEFECE" filter="url(#fdq77elnyp9h8)" height="48.8002" rx="12.5" ry="12.5" style="stroke: #A80036; stroke-width: 1.5;" width="186" x="107" y="84"/><text fill="#000000" font-family="sans-serif" font-size="12" lengthAdjust="spacingAndGlyphs" textLength="65" x="117" y="106.0001">process only</text><text fill="#000000" font-family="sans-serif" font-size="12" lengthAdjust="spacingAndGlyphs" text-decoration="underline" textLength="49" x="117" y="120.4002">sequence</text><text fill="#000000" font-family="sans-serif" font-size="12" lengthAdjust="spacingAndGlyphs" textLength="20" x="169" y="120.4002">and</text><text fill="#000000" font-family="sans-serif" font-size="12" lengthAdjust="spacingAndGlyphs" text-decoration="underline" textLength="37" x="192" y="120.4002">activity</text><text fill="#000000" font-family="sans-serif" font-size="12" lengthAdjust="spacingAndGlyphs" textLength="51" x="232" y="120.4002">diagrams</text><polygon fill="#FEFECE" filter="url(#fdq77elnyp9h8)" points="124.25,138.8002,136.25,150.8002,124.25,162.8002,112.25,150.8002,124.25,138.8002" style="stroke: #A80036; stroke-width: 1.5;"/><ellipse cx="124.25" cy="193.8002" fill="#FFFFFF" filter="url(#fdq77elnyp9h8)" rx="11" ry="11" style="stroke: #000000; stroke-width: 1.0;"/><ellipse cx="124.25" cy="193.8002" fill="#000000" rx="6" ry="6" style="stroke: #7F7F7F; stroke-width: 1.0;"/><line style="stroke: #A80036; stroke-width: 1.5;" x1="67.75" x2="48.5" y1="62" y2="62"/><line style="stroke: #A80036; stroke-width: 1.5;" x1="48.5" x2="48.5" y1="62" y2="84"/><polygon fill="#A80036" points="44.5,74,48.5,84,52.5,74,48.5,78" style="stroke: #A80036; stroke-width: 1.0;"/><line style="stroke: #A80036; stroke-width: 1.5;" x1="180.75" x2="200" y1="62" y2="62"/><line style="stroke: #A80036; stroke-width: 1.5;" x1="200" x2="200" y1="62" y2="84"/><polygon fill="#A80036" points="196,74,200,84,204,74,200,78" style="stroke: #A80036; stroke-width: 1.0;"/><line style="stroke: #A80036; stroke-width: 1.5;" x1="48.5" x2="48.5" y1="132.8002" y2="150.8002"/><line style="stroke: #A80036; stroke-width: 1.5;" x1="48.5" x2="112.25" y1="150.8002" y2="150.8002"/><polygon fill="#A80036" points="102.25,146.8002,112.25,150.8002,102.25,154.8002,106.25,150.8002" style="stroke: #A80036; stroke-width: 1.0;"/><line style="stroke: #A80036; stroke-width: 1.5;" x1="200" x2="200" y1="132.8002" y2="150.8002"/><line style="stroke: #A80036; stroke-width: 1.5;" x1="200" x2="136.25" y1="150.8002" y2="150.8002"/><polygon fill="#A80036" points="146.25,146.8002,136.25,150.8002,146.25,154.8002,142.25,150.8002" style="stroke: #A80036; stroke-width: 1.0;"/><line style="stroke: #A80036; stroke-width: 1.5;" x1="124.25" x2="124.25" y1="30" y2="50"/><polygon fill="#A80036" points="120.25,40,124.25,50,128.25,40,124.25,44" style="stroke: #A80036; stroke-width: 1.0;"/><line style="stroke: #A80036; stroke-width: 1.5;" x1="124.25" x2="124.25" y1="162.8002" y2="182.8002"/><polygon fill="#A80036" points="120.25,172.8002,124.25,182.8002,128.25,172.8002,124.25,176.8002" style="stroke: #A80036; stroke-width: 1.0;"/><!--MD5=[c3e29ea4000106ee45fdfea75ad8b249]
@startuml
start

if (Graphviz installed?) then (yes)
  :process all\ndiagrams;
else (no)
  :process only
  __sequence__ and __activity__ diagrams;
endif

stop
@enduml

PlantUML version 1.2020.08(Sun Apr 26 14:08:22 GMT 2020)
(GPL source distribution)
Java Runtime: OpenJDK Runtime Environment
JVM: OpenJDK 64-Bit Server VM
Java Version: 11.0.6+10
Operating System: Linux
Default Encoding: UTF-8
Language: en
Country: US
--></g></svg>