<?xml version="1.0" encoding="UTF-8" standalone="no"?><svg xmlns="http://www.w3.org/2000/svg" xmlns:xlink="http://www.w3.org/1999/xlink" contentScriptType="application/ecmascript" contentStyleType="text/css" height="75px" preserveAspectRatio="none" style="width:370px;height:75px;" version="1.1" viewBox="0 0 370 75" width="370px" zoomAndPan="magnify"><defs/><g><text fill="#000000" font-family="Serif" font-size="10" lengthAdjust="spacingAndGlyphs" textLength="14" x="1" y="26">Mo</text><text fill="#000000" font-family="Serif" font-size="10" lengthAdjust="spacingAndGlyphs" textLength="10" x="3" y="38">13</text><text fill="#000000" font-family="Serif" font-size="10" lengthAdjust="spacingAndGlyphs" textLength="11" x="18.5" y="26">Tu</text><text fill="#000000" font-family="Serif" font-size="10" lengthAdjust="spacingAndGlyphs" textLength="10" x="19" y="38">14</text><text fill="#000000" font-family="Serif" font-size="10" lengthAdjust="spacingAndGlyphs" textLength="13" x="33.5" y="26">We</text><text fill="#000000" font-family="Serif" font-size="10" lengthAdjust="spacingAndGlyphs" textLength="10" x="35" y="38">15</text><text fill="#000000" font-family="Serif" font-size="10" lengthAdjust="spacingAndGlyphs" textLength="11" x="50.5" y="26">Th</text><text fill="#000000" font-family="Serif" font-size="10" lengthAdjust="spacingAndGlyphs" textLength="10" x="51" y="38">16</text><text fill="#000000" font-family="Serif" font-size="10" lengthAdjust="spacingAndGlyphs" textLength="9" x="67.5" y="26">Fr</text><text fill="#000000" font-family="Serif" font-size="10" lengthAdjust="spacingAndGlyphs" textLength="10" x="67" y="38">17</text><text fill="#000000" font-family="Serif" font-size="10" lengthAdjust="spacingAndGlyphs" textLength="9" x="83.5" y="26">Sa</text><text fill="#000000" font-family="Serif" font-size="10" lengthAdjust="spacingAndGlyphs" textLength="10" x="83" y="38">18</text><text fill="#000000" font-family="Serif" font-size="10" lengthAdjust="spacingAndGlyphs" textLength="10" x="99" y="26">Su</text><text fill="#000000" font-family="Serif" font-size="10" lengthAdjust="spacingAndGlyphs" textLength="10" x="99" y="38">19</text><text fill="#000000" font-family="Serif" font-size="10" lengthAdjust="spacingAndGlyphs" textLength="14" x="113" y="26">Mo</text><text fill="#000000" font-family="Serif" font-size="10" lengthAdjust="spacingAndGlyphs" textLength="10" x="115" y="38">20</text><text fill="#000000" font-family="Serif" font-size="10" lengthAdjust="spacingAndGlyphs" textLength="11" x="130.5" y="26">Tu</text><text fill="#000000" font-family="Serif" font-size="10" lengthAdjust="spacingAndGlyphs" textLength="10" x="131" y="38">21</text><text fill="#000000" font-family="Serif" font-size="10" lengthAdjust="spacingAndGlyphs" textLength="13" x="145.5" y="26">We</text><text fill="#000000" font-family="Serif" font-size="10" lengthAdjust="spacingAndGlyphs" textLength="10" x="147" y="38">22</text><text fill="#000000" font-family="Serif" font-size="10" lengthAdjust="spacingAndGlyphs" textLength="11" x="162.5" y="26">Th</text><text fill="#000000" font-family="Serif" font-size="10" lengthAdjust="spacingAndGlyphs" textLength="10" x="163" y="38">23</text><text fill="#000000" font-family="Serif" font-size="10" lengthAdjust="spacingAndGlyphs" textLength="9" x="179.5" y="26">Fr</text><text fill="#000000" font-family="Serif" font-size="10" lengthAdjust="spacingAndGlyphs" textLength="10" x="179" y="38">24</text><text fill="#000000" font-family="Serif" font-size="10" lengthAdjust="spacingAndGlyphs" textLength="9" x="195.5" y="26">Sa</text><text fill="#000000" font-family="Serif" font-size="10" lengthAdjust="spacingAndGlyphs" textLength="10" x="195" y="38">25</text><text fill="#000000" font-family="Serif" font-size="10" lengthAdjust="spacingAndGlyphs" textLength="10" x="211" y="26">Su</text><text fill="#000000" font-family="Serif" font-size="10" lengthAdjust="spacingAndGlyphs" textLength="10" x="211" y="38">26</text><text fill="#000000" font-family="Serif" font-size="10" lengthAdjust="spacingAndGlyphs" textLength="14" x="225" y="26">Mo</text><text fill="#000000" font-family="Serif" font-size="10" lengthAdjust="spacingAndGlyphs" textLength="10" x="227" y="38">27</text><text fill="#000000" font-family="Serif" font-size="10" lengthAdjust="spacingAndGlyphs" textLength="11" x="242.5" y="26">Tu</text><text fill="#000000" font-family="Serif" font-size="10" lengthAdjust="spacingAndGlyphs" textLength="10" x="243" y="38">28</text><text fill="#000000" font-family="Serif" font-size="10" lengthAdjust="spacingAndGlyphs" textLength="13" x="257.5" y="26">We</text><text fill="#000000" font-family="Serif" font-size="10" lengthAdjust="spacingAndGlyphs" textLength="10" x="259" y="38">29</text><text fill="#000000" font-family="Serif" font-size="10" lengthAdjust="spacingAndGlyphs" textLength="11" x="274.5" y="26">Th</text><text fill="#000000" font-family="Serif" font-size="10" lengthAdjust="spacingAndGlyphs" textLength="10" x="275" y="38">30</text><text fill="#000000" font-family="Serif" font-size="10" lengthAdjust="spacingAndGlyphs" textLength="9" x="291.5" y="26">Fr</text><text fill="#000000" font-family="Serif" font-size="10" lengthAdjust="spacingAndGlyphs" textLength="5" x="293.5" y="38">1</text><text fill="#000000" font-family="Serif" font-size="10" lengthAdjust="spacingAndGlyphs" textLength="9" x="307.5" y="26">Sa</text><text fill="#000000" font-family="Serif" font-size="10" lengthAdjust="spacingAndGlyphs" textLength="5" x="309.5" y="38">2</text><text fill="#000000" font-family="Serif" font-size="10" lengthAdjust="spacingAndGlyphs" textLength="10" x="323" y="26">Su</text><text fill="#000000" font-family="Serif" font-size="10" lengthAdjust="spacingAndGlyphs" textLength="5" x="325.5" y="38">3</text><text fill="#000000" font-family="Serif" font-size="10" lengthAdjust="spacingAndGlyphs" textLength="14" x="337" y="26">Mo</text><text fill="#000000" font-family="Serif" font-size="10" lengthAdjust="spacingAndGlyphs" textLength="5" x="341.5" y="38">4</text><text fill="#000000" font-family="Serif" font-size="10" lengthAdjust="spacingAndGlyphs" textLength="11" x="354.5" y="26">Tu</text><text fill="#000000" font-family="Serif" font-size="10" lengthAdjust="spacingAndGlyphs" textLength="5" x="357.5" y="38">5</text><text fill="#000000" font-family="Serif" font-size="12" font-weight="bold" lengthAdjust="spacingAndGlyphs" textLength="55" x="116.5" y="12.0001">April 2020</text><text fill="#000000" font-family="Serif" font-size="12" font-weight="bold" lengthAdjust="spacingAndGlyphs" textLength="50" x="303" y="12.0001">May 2020</text><line style="stroke: #C0C0C0; stroke-width: 1.0;" x1="0" x2="0" y1="0" y2="73"/><line style="stroke: #C0C0C0; stroke-width: 1.0;" x1="16" x2="16" y1="41" y2="73"/><line style="stroke: #C0C0C0; stroke-width: 1.0;" x1="32" x2="32" y1="41" y2="73"/><line style="stroke: #C0C0C0; stroke-width: 1.0;" x1="48" x2="48" y1="41" y2="73"/><line style="stroke: #C0C0C0; stroke-width: 1.0;" x1="64" x2="64" y1="41" y2="73"/><line style="stroke: #C0C0C0; stroke-width: 1.0;" x1="80" x2="80" y1="41" y2="73"/><line style="stroke: #C0C0C0; stroke-width: 1.0;" x1="96" x2="96" y1="41" y2="73"/><line style="stroke: #C0C0C0; stroke-width: 1.0;" x1="112" x2="112" y1="41" y2="73"/><line style="stroke: #C0C0C0; stroke-width: 1.0;" x1="128" x2="128" y1="41" y2="73"/><line style="stroke: #C0C0C0; stroke-width: 1.0;" x1="144" x2="144" y1="41" y2="73"/><line style="stroke: #C0C0C0; stroke-width: 1.0;" x1="160" x2="160" y1="41" y2="73"/><line style="stroke: #C0C0C0; stroke-width: 1.0;" x1="176" x2="176" y1="41" y2="73"/><line style="stroke: #C0C0C0; stroke-width: 1.0;" x1="192" x2="192" y1="41" y2="73"/><line style="stroke: #C0C0C0; stroke-width: 1.0;" x1="208" x2="208" y1="41" y2="73"/><line style="stroke: #C0C0C0; stroke-width: 1.0;" x1="224" x2="224" y1="41" y2="73"/><line style="stroke: #C0C0C0; stroke-width: 1.0;" x1="240" x2="240" y1="41" y2="73"/><line style="stroke: #C0C0C0; stroke-width: 1.0;" x1="256" x2="256" y1="41" y2="73"/><line style="stroke: #C0C0C0; stroke-width: 1.0;" x1="272" x2="272" y1="41" y2="73"/><line style="stroke: #C0C0C0; stroke-width: 1.0;" x1="288" x2="288" y1="0" y2="73"/><line style="stroke: #C0C0C0; stroke-width: 1.0;" x1="304" x2="304" y1="41" y2="73"/><line style="stroke: #C0C0C0; stroke-width: 1.0;" x1="320" x2="320" y1="41" y2="73"/><line style="stroke: #C0C0C0; stroke-width: 1.0;" x1="336" x2="336" y1="41" y2="73"/><line style="stroke: #C0C0C0; stroke-width: 1.0;" x1="352" x2="352" y1="41" y2="73"/><line style="stroke: #C0C0C0; stroke-width: 1.0;" x1="368" x2="368" y1="16" y2="73"/><line style="stroke: #C0C0C0; stroke-width: 1.0;" x1="0" x2="368" y1="0" y2="0"/><line style="stroke: #C0C0C0; stroke-width: 1.0;" x1="0" x2="368" y1="41" y2="41"/><line style="stroke: #CD0A0A; stroke-width: 1.5;" x1="120" x2="120" y1="57" y2="65"/><line style="stroke: #CD0A0A; stroke-width: 1.5;" x1="120" x2="128" y1="65" y2="65"/><polygon fill="#CD0A0A" points="124,61,124,65,124,69,128,65" style="stroke: #CD0A0A; stroke-width: 1.5;"/><rect fill="#FFFFFF" height="12" rx="4" ry="4" style="stroke: #FFFFFF; stroke-width: 1.0;" width="124" x="2" y="43"/><rect fill="#FF00FF" height="12" rx="4" ry="4" style="stroke: none; stroke-width: 1.0;" width="49.6" x="2" y="43"/><rect fill="#FF00FF" height="12" style="stroke: none; stroke-width: 1.0;" width="8" x="43.6" y="43"/><rect fill="none" height="12" rx="4" ry="4" style="stroke: #B22222; stroke-width: 1.0;" width="124" x="2" y="43"/><rect fill="#FFFFFF" height="12" rx="4" ry="4" style="stroke: #FFFFFF; stroke-width: 1.0;" width="236" x="130" y="59"/><rect fill="none" height="12" rx="4" ry="4" style="stroke: #0000FF; stroke-width: 1.0;" width="236" x="130" y="59"/><text fill="#000000" font-family="Serif" font-size="11" lengthAdjust="spacingAndGlyphs" textLength="72" x="16" y="52.4">Prototype design</text><text fill="#000000" font-family="Serif" font-size="11" lengthAdjust="spacingAndGlyphs" textLength="64" x="144" y="68.4">Test prototype</text><!--MD5=[d41d8cd98f00b204e9800998ecf8427e]
--></g></svg>