<?xml version="1.0" encoding="UTF-8" standalone="no"?><svg xmlns="http://www.w3.org/2000/svg" xmlns:xlink="http://www.w3.org/1999/xlink" contentScriptType="application/ecmascript" contentStyleType="text/css" height="355px" preserveAspectRatio="none" style="width:265px;height:355px;" version="1.1" viewBox="0 0 265 355" width="265px" zoomAndPan="magnify"><defs><filter height="300%" id="fzh3ovipbi636" width="300%" x="-1" y="-1"><feGaussianBlur result="blurOut" stdDeviation="2.0"/><feColorMatrix in="blurOut" result="blurOut2" type="matrix" values="0 0 0 0 0 0 0 0 0 0 0 0 0 0 0 0 0 0 .4 0"/><feOffset dx="4.0" dy="4.0" in="blurOut2" result="blurOut3"/><feBlend in="SourceGraphic" in2="blurOut3" mode="normal"/></filter></defs><g><!--MD5=[fee662a292a0353a69bd162820bae93b]
entity User--><ellipse cx="20.5" cy="160.5" fill="#FEFECE" filter="url(#fzh3ovipbi636)" rx="8" ry="8" style="stroke: #A80036; stroke-width: 1.5;"/><path d="M20.5,168.5 L20.5,195.5 M7.5,176.5 L33.5,176.5 M20.5,195.5 L7.5,210.5 M20.5,195.5 L33.5,210.5 " fill="none" filter="url(#fzh3ovipbi636)" style="stroke: #A80036; stroke-width: 1.5;"/><text fill="#000000" font-family="sans-serif" font-size="14" lengthAdjust="spacingAndGlyphs" textLength="29" x="6" y="229.9999">User</text><ellipse cx="94.7132" cy="191.8793" fill="#FEFECE" filter="url(#fzh3ovipbi636)" rx="24.2132" ry="14.8793" style="stroke: #A80036; stroke-width: 1.5;"/><text fill="#000000" font-family="sans-serif" font-size="14" lengthAdjust="spacingAndGlyphs" textLength="30" x="79.7132" y="196.7793">Start</text><ellipse cx="104.4223" cy="327.4845" fill="#FEFECE" filter="url(#fzh3ovipbi636)" rx="75.4223" ry="17.4845" style="stroke: #A80036; stroke-width: 1.5;"/><text fill="#000000" font-family="sans-serif" font-size="14" lengthAdjust="spacingAndGlyphs" textLength="118" x="45.4223" y="332.3844">Use the application</text><!--MD5=[9d80a031e6d406631f1782a5e0bf8feb]
entity Main Admin--><ellipse cx="188.5" cy="17.5" fill="#FEFECE" filter="url(#fzh3ovipbi636)" rx="8" ry="8" style="stroke: #A80036; stroke-width: 1.5;"/><path d="M188.5,25.5 L188.5,52.5 M175.5,33.5 L201.5,33.5 M188.5,52.5 L175.5,67.5 M188.5,52.5 L201.5,67.5 " fill="none" filter="url(#fzh3ovipbi636)" style="stroke: #A80036; stroke-width: 1.5;"/><text fill="#000000" font-family="sans-serif" font-size="14" lengthAdjust="spacingAndGlyphs" textLength="74" x="151.5" y="86.9999">Main Admin</text><!--MD5=[f4b2be5085d6f52f3a0e36c62efcf3ad]
link User to Start--><path d="M35.24,192 C45.23,192 55.22,192 65.2,192 " fill="none" id="User-&gt;Start" style="stroke: #A80036; stroke-width: 1.0;"/><polygon fill="#A80036" points="70.43,192,61.43,188,65.43,192,61.43,196,70.43,192" style="stroke: #A80036; stroke-width: 1.0;"/><!--MD5=[d0b0c59f33bd08b0398cb18ab70d3659]
link User to Use the application--><path d="M35.13,216.25 C50.97,241.43 76.02,281.23 91.28,305.49 " fill="none" id="User-&gt;Use the application" style="stroke: #A80036; stroke-width: 1.0;"/><polygon fill="#A80036" points="94.02,309.84,92.5948,300.0948,91.3495,305.6129,85.8314,304.3676,94.02,309.84" style="stroke: #A80036; stroke-width: 1.0;"/><text fill="#000000" font-family="sans-serif" font-size="13" lengthAdjust="spacingAndGlyphs" textLength="72" x="76.5" y="277">A small label</text><!--MD5=[84f62c86aeb01e7b0e45c962b4c6c2da]
link Main Admin to Use the application--><path d="M191.33,90.42 C192.9,138.5 189.78,219.82 157.5,280 C151.73,290.76 142.41,300.19 133.18,307.7 " fill="none" id="Main Admin-&gt;Use the application" style="stroke: #A80036; stroke-width: 1.0;"/><polygon fill="#A80036" points="129.24,310.8,138.7928,308.4032,133.1775,307.7185,133.8623,302.1032,129.24,310.8" style="stroke: #A80036; stroke-width: 1.0;"/><text fill="#000000" font-family="sans-serif" font-size="13" lengthAdjust="spacingAndGlyphs" textLength="36" x="204" y="182">This is</text><text fill="#000000" font-family="sans-serif" font-size="13" lengthAdjust="spacingAndGlyphs" textLength="63" x="190.5" y="197.6">yet another</text><text fill="#000000" font-family="sans-serif" font-size="13" lengthAdjust="spacingAndGlyphs" textLength="27" x="208.5" y="213.2">label</text><!--MD5=[d2f169ae095c38949ca495b0831f6163]
@startuml
User -> (Start)
User - -> (Use the application) : A small label

:Main Admin: - - -> (Use the application) : This is\nyet another\nlabel
@enduml

PlantUML version 1.2020.08(Sun Apr 26 14:08:22 GMT 2020)
(GPL source distribution)
Java Runtime: OpenJDK Runtime Environment
JVM: OpenJDK 64-Bit Server VM
Java Version: 11.0.6+10
Operating System: Linux
Default Encoding: UTF-8
Language: en
Country: US
--></g></svg>