<?xml version="1.0" encoding="UTF-8" standalone="no"?><svg xmlns="http://www.w3.org/2000/svg" xmlns:xlink="http://www.w3.org/1999/xlink" contentScriptType="application/ecmascript" contentStyleType="text/css" height="430px" preserveAspectRatio="none" style="width:461px;height:430px;" version="1.1" viewBox="0 0 461 430" width="461px" zoomAndPan="magnify"><defs><filter height="300%" id="fwlj16lwebi3q" width="300%" x="-1" y="-1"><feGaussianBlur result="blurOut" stdDeviation="2.0"/><feColorMatrix in="blurOut" result="blurOut2" type="matrix" values="0 0 0 0 0 0 0 0 0 0 0 0 0 0 0 0 0 0 .4 0"/><feOffset dx="4.0" dy="4.0" in="blurOut2" result="blurOut3"/><feBlend in="SourceGraphic" in2="blurOut3" mode="normal"/></filter></defs><g><!--MD5=[262aabfe314dcb38308ea550cce12173]
cluster Some Group--><polygon fill="#FFFFFF" filter="url(#fwlj16lwebi3q)" points="22,24,115,24,122,46.7999,406,46.7999,406,112,22,112,22,24" style="stroke: #000000; stroke-width: 1.5;"/><line style="stroke: #000000; stroke-width: 1.5;" x1="22" x2="122" y1="46.7999" y2="46.7999"/><text fill="#000000" font-family="sans-serif" font-size="14" font-weight="bold" lengthAdjust="spacingAndGlyphs" textLength="87" x="26" y="39.9999">Some Group</text><!--MD5=[a809f7b457cbc4d947186a4bb863b06b]
cluster Other Groups--><polygon fill="#FFFFFF" filter="url(#fwlj16lwebi3q)" points="22,199,32,189,247,189,247,272,237,282,22,282,22,199" style="stroke: #000000; stroke-width: 1.5;"/><line style="stroke: #000000; stroke-width: 1.5;" x1="237" x2="246" y1="199" y2="190"/><line style="stroke: #000000; stroke-width: 1.5;" x1="22" x2="237" y1="199" y2="199"/><line style="stroke: #000000; stroke-width: 1.5;" x1="237" x2="237" y1="199" y2="282"/><text fill="#000000" font-family="sans-serif" font-size="14" font-weight="bold" lengthAdjust="spacingAndGlyphs" textLength="92" x="84.5" y="215.9999">Other Groups</text><!--MD5=[a8e31809c94bd3920922c17a126bb0b3]
cluster MySql--><path d="M271,146 C271,136 360,136 360,136 C360,136 449,136 449,146 L449,408 C449,418 360,418 360,418 C360,418 271,418 271,408 L271,146 " fill="#FFFFFF" filter="url(#fwlj16lwebi3q)" style="stroke: #000000; stroke-width: 1.5;"/><path d="M271,146 C271,156 360,156 360,156 C360,156 449,156 449,146 " fill="none" style="stroke: #000000; stroke-width: 1.5;"/><text fill="#000000" font-family="sans-serif" font-size="14" font-weight="bold" lengthAdjust="spacingAndGlyphs" textLength="43" x="338.5" y="171.9999">MySql</text><!--MD5=[57a7dd60b0970f41fd8892a58576fbc8]
cluster This is my folder--><polygon fill="#FFFFFF" filter="url(#fwlj16lwebi3q)" points="295,194,415,194,422,216.7999,425,216.7999,425,282,295,282,295,194" style="stroke: #000000; stroke-width: 1.5;"/><line style="stroke: #000000; stroke-width: 1.5;" x1="295" x2="422" y1="216.7999" y2="216.7999"/><text fill="#000000" font-family="sans-serif" font-size="14" font-weight="bold" lengthAdjust="spacingAndGlyphs" textLength="114" x="299" y="209.9999">This is my folder</text><!--MD5=[b098bf3b49ab5940c6091a421f0675e2]
cluster Foo--><rect fill="#FFFFFF" filter="url(#fwlj16lwebi3q)" height="88" style="stroke: #000000; stroke-width: 1.5;" width="104" x="295" y="306"/><path d="M332,307 L332,315.7999 L322,325.7999 L295,325.7999 " fill="none" style="stroke: #000000; stroke-width: 1.5;"/><text fill="#000000" font-family="sans-serif" font-size="14" font-weight="bold" lengthAdjust="spacingAndGlyphs" textLength="27" x="298" y="320.9999">Foo</text><!--MD5=[96f7e1299d4a43069e6ed32352fcac20]
entity HTTP--><ellipse cx="204" cy="77.5" fill="#FEFECE" filter="url(#fwlj16lwebi3q)" rx="8" ry="8" style="stroke: #A80036; stroke-width: 2.0;"/><text fill="#000000" font-family="sans-serif" font-size="14" lengthAdjust="spacingAndGlyphs" textLength="37" x="185.5" y="108.4999">HTTP</text><!--MD5=[cbd7cda55f2530e2efe43ec72c097853]
entity First Component--><rect fill="#FEFECE" filter="url(#fwlj16lwebi3q)" height="36.7999" style="stroke: #A80036; stroke-width: 1.5;" width="121" x="38.5" y="59"/><rect fill="#FEFECE" height="5" style="stroke: #A80036; stroke-width: 1.5;" width="10" x="33.5" y="64"/><rect fill="#FEFECE" height="5" style="stroke: #A80036; stroke-width: 1.5;" width="10" x="33.5" y="85.7999"/><text fill="#000000" font-family="sans-serif" font-size="14" lengthAdjust="spacingAndGlyphs" textLength="101" x="48.5" y="82.9999">First Component</text><!--MD5=[b9d11f23832c1491231c5b33e55ab8c6]
entity Another Component--><rect fill="#FEFECE" filter="url(#fwlj16lwebi3q)" height="36.7999" style="stroke: #A80036; stroke-width: 1.5;" width="142" x="248" y="59"/><rect fill="#FEFECE" height="5" style="stroke: #A80036; stroke-width: 1.5;" width="10" x="243" y="64"/><rect fill="#FEFECE" height="5" style="stroke: #A80036; stroke-width: 1.5;" width="10" x="243" y="85.7999"/><text fill="#000000" font-family="sans-serif" font-size="14" lengthAdjust="spacingAndGlyphs" textLength="122" x="258" y="82.9999">Another Component</text><!--MD5=[76af18d92d7d7c0f7ebd8f4f605ac5aa]
entity FTP--><ellipse cx="47" cy="247.5" fill="#FEFECE" filter="url(#fwlj16lwebi3q)" rx="8" ry="8" style="stroke: #A80036; stroke-width: 2.0;"/><text fill="#000000" font-family="sans-serif" font-size="14" lengthAdjust="spacingAndGlyphs" textLength="26" x="34" y="278.4999">FTP</text><!--MD5=[0e2cc1aee2c7f52697e111b4fb84546c]
entity Second Component--><rect fill="#FEFECE" filter="url(#fwlj16lwebi3q)" height="36.7999" style="stroke: #A80036; stroke-width: 1.5;" width="140" x="91" y="229"/><rect fill="#FEFECE" height="5" style="stroke: #A80036; stroke-width: 1.5;" width="10" x="86" y="234"/><rect fill="#FEFECE" height="5" style="stroke: #A80036; stroke-width: 1.5;" width="10" x="86" y="255.7999"/><text fill="#000000" font-family="sans-serif" font-size="14" lengthAdjust="spacingAndGlyphs" textLength="120" x="101" y="252.9999">Second Component</text><!--MD5=[3e0e08c92570480402984701ab5a6d2d]
entity Folder 3--><rect fill="#FEFECE" filter="url(#fwlj16lwebi3q)" height="36.7999" style="stroke: #A80036; stroke-width: 1.5;" width="70" x="311" y="229"/><rect fill="#FEFECE" height="5" style="stroke: #A80036; stroke-width: 1.5;" width="10" x="306" y="234"/><rect fill="#FEFECE" height="5" style="stroke: #A80036; stroke-width: 1.5;" width="10" x="306" y="255.7999"/><text fill="#000000" font-family="sans-serif" font-size="14" lengthAdjust="spacingAndGlyphs" textLength="50" x="321" y="252.9999">Folder 3</text><!--MD5=[63877ed85df621d134a6c80fb52dad56]
entity Frame 4--><rect fill="#FEFECE" filter="url(#fwlj16lwebi3q)" height="36.7999" style="stroke: #A80036; stroke-width: 1.5;" width="71" x="311.5" y="341"/><rect fill="#FEFECE" height="5" style="stroke: #A80036; stroke-width: 1.5;" width="10" x="306.5" y="346"/><rect fill="#FEFECE" height="5" style="stroke: #A80036; stroke-width: 1.5;" width="10" x="306.5" y="367.7999"/><text fill="#000000" font-family="sans-serif" font-size="14" lengthAdjust="spacingAndGlyphs" textLength="51" x="321.5" y="364.9999">Frame 4</text><!--MD5=[46d996859f59e5baf77956ce93023cee]
link HTTP to First Component--><path d="M194.66,77.5 C183.01,77.5 171.35,77.5 159.7,77.5 " fill="none" id="HTTP-First Component" style="stroke: #A80036; stroke-width: 1.0;"/><!--MD5=[1966a42bb49d59057147dbda06282f4b]
link FTP to Second Component--><path d="M56.35,247.5 C67.8,247.5 79.24,247.5 90.69,247.5 " fill="none" id="FTP-Second Component" style="stroke: #A80036; stroke-width: 1.0;"/><!--MD5=[d3aefbd8005e27b21e7ce98ddd948193]
link First Component to FTP--><path d="M88.16,96.3 C82.95,105.5 76.99,117.06 73,128 C59.56,164.85 51.91,210.79 48.75,233.1 " fill="none" id="First Component-&gt;FTP" style="stroke: #A80036; stroke-width: 1.0;"/><polygon fill="#A80036" points="48.04,238.24,53.2388,229.875,48.7271,233.2874,45.3147,228.7757,48.04,238.24" style="stroke: #A80036; stroke-width: 1.0;"/><!--MD5=[fb09d760d1e22cda6345c5ed519a9c90]
link Another Component to Folder 3--><path d="M321.84,96.16 C326.76,126.79 336.87,189.72 342.33,223.64 " fill="none" id="Another Component-&gt;Folder 3" style="stroke: #A80036; stroke-width: 1.0;"/><polygon fill="#A80036" points="343.16,228.82,345.6932,219.3025,342.3728,223.8824,337.793,220.562,343.16,228.82" style="stroke: #A80036; stroke-width: 1.0;"/><!--MD5=[b96c7096199393c1414a8b4e9ed2c30f]
link Folder 3 to Frame 4--><path d="M346.16,266.17 C346.33,285.1 346.61,315.18 346.79,335.84 " fill="none" id="Folder 3-&gt;Frame 4" style="stroke: #A80036; stroke-width: 1.0;"/><polygon fill="#A80036" points="346.84,340.87,350.7369,331.8249,346.7829,335.8703,342.7374,331.9163,346.84,340.87" style="stroke: #A80036; stroke-width: 1.0;"/><!--MD5=[b5e99b793506a0adaf50cb8127701669]
@startuml
package "Some Group" {
  HTTP - [First Component]
  [Another Component]
}

node "Other Groups" {
  FTP - [Second Component]
  [First Component] - -> FTP
}

database "MySql" {
  folder "This is my folder" {
    [Folder 3]
  }
  frame "Foo" {
    [Frame 4]
  }
}

[Another Component] - -> [Folder 3]
[Folder 3] - -> [Frame 4]
@enduml

PlantUML version 1.2020.08(Sun Apr 26 14:08:22 GMT 2020)
(GPL source distribution)
Java Runtime: OpenJDK Runtime Environment
JVM: OpenJDK 64-Bit Server VM
Java Version: 11.0.6+10
Operating System: Linux
Default Encoding: UTF-8
Language: en
Country: US
--></g></svg>