<?xml version="1.0" encoding="UTF-8" standalone="no"?><svg xmlns="http://www.w3.org/2000/svg" xmlns:xlink="http://www.w3.org/1999/xlink" contentScriptType="application/ecmascript" contentStyleType="text/css" height="214px" preserveAspectRatio="none" style="width:132px;height:214px;" version="1.1" viewBox="0 0 132 214" width="132px" zoomAndPan="magnify"><defs><filter height="300%" id="f117g7dxaywto9" width="300%" x="-1" y="-1"><feGaussianBlur result="blurOut" stdDeviation="2.0"/><feColorMatrix in="blurOut" result="blurOut2" type="matrix" values="0 0 0 0 0 0 0 0 0 0 0 0 0 0 0 0 0 0 .4 0"/><feOffset dx="4.0" dy="4.0" in="blurOut2" result="blurOut3"/><feBlend in="SourceGraphic" in2="blurOut3" mode="normal"/></filter></defs><g><!--MD5=[aa7f586532e18719e6cefa70fc650583]
class Object--><rect fill="#FEFECE" filter="url(#f117g7dxaywto9)" height="61.1999" id="Object" style="stroke: #A80036; stroke-width: 1.5;" width="66" x="30.5" y="8"/><ellipse cx="45.5" cy="24" fill="#ADD1B2" rx="11" ry="11" style="stroke: #A80036; stroke-width: 1.0;"/><path d="M44.8594,27.7813 Q45.6563,27.7813 46.2188,27.5938 Q46.7969,27.3906 47.0313,27.1719 Q47.2813,26.9375 47.5156,26.75 Q47.7656,26.5469 47.9844,26.5469 Q48.3281,26.5469 48.5781,26.8125 Q48.8438,27.0625 48.8438,27.3906 Q48.8438,28.125 47.6719,28.8125 Q46.5156,29.4844 44.8125,29.4844 Q42.6563,29.4844 41.2344,28.2188 Q39.8125,26.9531 39.8125,25.0156 L39.8125,23.8906 Q39.8125,21.8594 41.1406,20.4844 Q42.4688,19.0938 44.4375,19.0938 Q45.625,19.0938 46.8438,19.6719 L47.0156,19.75 Q47.3125,19.3438 47.7344,19.3438 Q48.2188,19.3438 48.3906,19.6406 Q48.5781,19.9219 48.5781,20.4688 L48.5781,21.8906 Q48.5781,23.0156 47.7344,23.0156 Q47.4219,23.0156 47.2188,22.8438 Q47.0313,22.6719 46.9844,22.5313 Q46.9531,22.375 46.9063,22.1094 Q46.7969,21.5938 46.2813,21.2813 Q45.7656,20.9688 45.3125,20.8906 Q44.875,20.7969 44.5,20.7969 Q43.2188,20.7969 42.3594,21.6719 Q41.5156,22.5469 41.5156,23.8906 L41.5156,24.9844 Q41.5156,26.2656 42.4219,27.0313 Q43.3281,27.7813 44.8594,27.7813 Z "/><text fill="#000000" font-family="sans-serif" font-size="12" lengthAdjust="spacingAndGlyphs" textLength="34" x="59.5" y="28.8">Object</text><line style="stroke: #A80036; stroke-width: 1.5;" x1="31.5" x2="95.5" y1="40" y2="40"/><line style="stroke: #A80036; stroke-width: 1.5;" x1="31.5" x2="95.5" y1="48" y2="48"/><text fill="#000000" font-family="sans-serif" font-size="11" lengthAdjust="spacingAndGlyphs" textLength="39" x="36.5" y="62.9999">equals()</text><!--MD5=[ab8871ed637f40707b866ba6597734bc]
class ArrayList--><rect fill="#FEFECE" filter="url(#f117g7dxaywto9)" height="74.3998" id="ArrayList" style="stroke: #A80036; stroke-width: 1.5;" width="115" x="6" y="129"/><ellipse cx="36.75" cy="145" fill="#ADD1B2" rx="11" ry="11" style="stroke: #A80036; stroke-width: 1.0;"/><path d="M36.1094,148.7813 Q36.9063,148.7813 37.4688,148.5938 Q38.0469,148.3906 38.2813,148.1719 Q38.5313,147.9375 38.7656,147.75 Q39.0156,147.5469 39.2344,147.5469 Q39.5781,147.5469 39.8281,147.8125 Q40.0938,148.0625 40.0938,148.3906 Q40.0938,149.125 38.9219,149.8125 Q37.7656,150.4844 36.0625,150.4844 Q33.9063,150.4844 32.4844,149.2188 Q31.0625,147.9531 31.0625,146.0156 L31.0625,144.8906 Q31.0625,142.8594 32.3906,141.4844 Q33.7188,140.0938 35.6875,140.0938 Q36.875,140.0938 38.0938,140.6719 L38.2656,140.75 Q38.5625,140.3438 38.9844,140.3438 Q39.4688,140.3438 39.6406,140.6406 Q39.8281,140.9219 39.8281,141.4688 L39.8281,142.8906 Q39.8281,144.0156 38.9844,144.0156 Q38.6719,144.0156 38.4688,143.8438 Q38.2813,143.6719 38.2344,143.5313 Q38.2031,143.375 38.1563,143.1094 Q38.0469,142.5938 37.5313,142.2813 Q37.0156,141.9688 36.5625,141.8906 Q36.125,141.7969 35.75,141.7969 Q34.4688,141.7969 33.6094,142.6719 Q32.7656,143.5469 32.7656,144.8906 L32.7656,145.9844 Q32.7656,147.2656 33.6719,148.0313 Q34.5781,148.7813 36.1094,148.7813 Z "/><text fill="#000000" font-family="sans-serif" font-size="12" lengthAdjust="spacingAndGlyphs" textLength="48" x="54.25" y="149.8">ArrayList</text><line style="stroke: #A80036; stroke-width: 1.5;" x1="7" x2="120" y1="161" y2="161"/><text fill="#000000" font-family="sans-serif" font-size="11" lengthAdjust="spacingAndGlyphs" textLength="103" x="12" y="175.9999">Object[] elementData</text><line style="stroke: #A80036; stroke-width: 1.5;" x1="7" x2="120" y1="182.1999" y2="182.1999"/><text fill="#000000" font-family="sans-serif" font-size="11" lengthAdjust="spacingAndGlyphs" textLength="26" x="12" y="197.1998">size()</text><!--MD5=[78ed3d54c6ad96fb6434a4e45aa4b5f0]
reverse link Object to ArrayList--><path d="M63.5,89.5 C63.5,102.62 63.5,116.51 63.5,128.76 " fill="none" id="Object&lt;-ArrayList" style="stroke: #A80036; stroke-width: 1.0;"/><polygon fill="none" points="56.5,89.24,63.5,69.24,70.5,89.24,56.5,89.24" style="stroke: #A80036; stroke-width: 1.0;"/><!--MD5=[01544afcd78c926a8b2d2f8b1a294f5f]
@startuml
Object <|- - ArrayList

Object : equals()
ArrayList : Object[] elementData
ArrayList : size()
@enduml

PlantUML version 1.2020.08(Sun Apr 26 14:08:22 GMT 2020)
(GPL source distribution)
Java Runtime: OpenJDK Runtime Environment
JVM: OpenJDK 64-Bit Server VM
Java Version: 11.0.6+10
Operating System: Linux
Default Encoding: UTF-8
Language: en
Country: US
--></g></svg>