<?xml version="1.0" encoding="UTF-8" standalone="no"?><svg xmlns="http://www.w3.org/2000/svg" xmlns:xlink="http://www.w3.org/1999/xlink" contentScriptType="application/ecmascript" contentStyleType="text/css" height="164px" preserveAspectRatio="none" style="width:408px;height:164px;" version="1.1" viewBox="0 0 408 164" width="408px" zoomAndPan="magnify"><defs><filter height="300%" id="f1c54sujdwv4j7" width="300%" x="-1" y="-1"><feGaussianBlur result="blurOut" stdDeviation="2.0"/><feColorMatrix in="blurOut" result="blurOut2" type="matrix" values="0 0 0 0 0 0 0 0 0 0 0 0 0 0 0 0 0 0 .4 0"/><feOffset dx="4.0" dy="4.0" in="blurOut2" result="blurOut3"/><feBlend in="SourceGraphic" in2="blurOut3" mode="normal"/></filter></defs><g><rect fill="#FEFECE" filter="url(#f1c54sujdwv4j7)" height="34.4001" style="stroke: #A80036; stroke-width: 1.5;" width="62" x="6" y="8"/><text fill="#000000" font-family="sans-serif" font-size="12" lengthAdjust="spacingAndGlyphs" textLength="48" x="13" y="22.0001">Object01</text><line style="stroke: #A80036; stroke-width: 1.5;" x1="7" x2="67" y1="26.4001" y2="26.4001"/><rect fill="#FEFECE" filter="url(#f1c54sujdwv4j7)" height="34.4001" style="stroke: #A80036; stroke-width: 1.5;" width="62" x="6" y="119"/><text fill="#000000" font-family="sans-serif" font-size="12" lengthAdjust="spacingAndGlyphs" textLength="48" x="13" y="133.0001">Object02</text><line style="stroke: #A80036; stroke-width: 1.5;" x1="7" x2="67" y1="137.4001" y2="137.4001"/><rect fill="#FEFECE" filter="url(#f1c54sujdwv4j7)" height="34.4001" style="stroke: #A80036; stroke-width: 1.5;" width="62" x="103" y="8"/><text fill="#000000" font-family="sans-serif" font-size="12" lengthAdjust="spacingAndGlyphs" textLength="48" x="110" y="22.0001">Object03</text><line style="stroke: #A80036; stroke-width: 1.5;" x1="104" x2="164" y1="26.4001" y2="26.4001"/><rect fill="#FEFECE" filter="url(#f1c54sujdwv4j7)" height="34.4001" style="stroke: #A80036; stroke-width: 1.5;" width="62" x="103" y="119"/><text fill="#000000" font-family="sans-serif" font-size="12" lengthAdjust="spacingAndGlyphs" textLength="48" x="110" y="133.0001">Object04</text><line style="stroke: #A80036; stroke-width: 1.5;" x1="104" x2="164" y1="137.4001" y2="137.4001"/><rect fill="#FEFECE" filter="url(#f1c54sujdwv4j7)" height="34.4001" style="stroke: #A80036; stroke-width: 1.5;" width="62" x="200" y="8"/><text fill="#000000" font-family="sans-serif" font-size="12" lengthAdjust="spacingAndGlyphs" textLength="48" x="207" y="22.0001">Object05</text><line style="stroke: #A80036; stroke-width: 1.5;" x1="201" x2="261" y1="26.4001" y2="26.4001"/><rect fill="#FEFECE" filter="url(#f1c54sujdwv4j7)" height="34.4001" style="stroke: #A80036; stroke-width: 1.5;" width="62" x="200" y="119"/><text fill="#000000" font-family="sans-serif" font-size="12" lengthAdjust="spacingAndGlyphs" textLength="48" x="207" y="133.0001">Object06</text><line style="stroke: #A80036; stroke-width: 1.5;" x1="201" x2="261" y1="137.4001" y2="137.4001"/><rect fill="#FEFECE" filter="url(#f1c54sujdwv4j7)" height="34.4001" style="stroke: #A80036; stroke-width: 1.5;" width="62" x="297" y="8"/><text fill="#000000" font-family="sans-serif" font-size="12" lengthAdjust="spacingAndGlyphs" textLength="48" x="304" y="22.0001">Object07</text><line style="stroke: #A80036; stroke-width: 1.5;" x1="298" x2="358" y1="26.4001" y2="26.4001"/><rect fill="#FEFECE" filter="url(#f1c54sujdwv4j7)" height="34.4001" style="stroke: #A80036; stroke-width: 1.5;" width="62" x="297" y="119"/><text fill="#000000" font-family="sans-serif" font-size="12" lengthAdjust="spacingAndGlyphs" textLength="48" x="304" y="133.0001">Object08</text><line style="stroke: #A80036; stroke-width: 1.5;" x1="298" x2="358" y1="137.4001" y2="137.4001"/><!--MD5=[507381b32e0a49e7abc7210229a8ee60]
reverse link Object01 to Object02--><path d="M37,62.35 C37,81.49 37,104.02 37,118.85 " fill="none" id="Object01&lt;-Object02" style="stroke: #A80036; stroke-width: 1.0;"/><polygon fill="none" points="30,62.08,37,42.08,44,62.08,30,62.08" style="stroke: #A80036; stroke-width: 1.0;"/><!--MD5=[d21c20b16b3ff22abbc2c8af84931b60]
reverse link Object03 to Object04--><path d="M134,55.35 C134,75.74 134,102.16 134,118.85 " fill="none" id="Object03&lt;-Object04" style="stroke: #A80036; stroke-width: 1.0;"/><polygon fill="#A80036" points="134,42.08,130,48.08,134,54.08,138,48.08,134,42.08" style="stroke: #A80036; stroke-width: 1.0;"/><!--MD5=[ade907096602ef8d7fe19339b46bff0e]
reverse link Object05 to Object06--><path d="M231,55.35 C231,75.74 231,102.16 231,118.85 " fill="none" id="Object05&lt;-Object06" style="stroke: #A80036; stroke-width: 1.0;"/><polygon fill="#FFFFFF" points="231,42.08,227,48.08,231,54.08,235,48.08,231,42.08" style="stroke: #A80036; stroke-width: 1.0;"/><text fill="#000000" font-family="sans-serif" font-size="13" lengthAdjust="spacingAndGlyphs" textLength="7" x="222.7969" y="108.4109">4</text><!--MD5=[17488501a7bed181c851ca0c615fb4f2]
link Object07 to Object08--><path d="M328,42.08 C328,62.69 328,98.21 328,118.85 " fill="none" id="Object07-Object08" style="stroke: #A80036; stroke-width: 1.0; stroke-dasharray: 7.0,7.0;"/><text fill="#000000" font-family="sans-serif" font-size="13" lengthAdjust="spacingAndGlyphs" textLength="67" x="329" y="86">some labels</text><!--MD5=[31947ff31cd88b71eb8421a371fc93d8]
@startuml
object Object01
object Object02
object Object03
object Object04
object Object05
object Object06
object Object07
object Object08

Object01 <|- - Object02
Object03 *- - Object04
Object05 o- - "4" Object06
Object07 .. Object08 : some labels
@enduml

PlantUML version 1.2020.08(Sun Apr 26 14:08:22 GMT 2020)
(GPL source distribution)
Java Runtime: OpenJDK Runtime Environment
JVM: OpenJDK 64-Bit Server VM
Java Version: 11.0.6+10
Operating System: Linux
Default Encoding: UTF-8
Language: en
Country: US
--></g></svg>