<?xml version="1.0" encoding="UTF-8" standalone="no"?><svg xmlns="http://www.w3.org/2000/svg" xmlns:xlink="http://www.w3.org/1999/xlink" contentScriptType="application/ecmascript" contentStyleType="text/css" height="245px" preserveAspectRatio="none" style="width:236px;height:245px;" version="1.1" viewBox="0 0 236 245" width="236px" zoomAndPan="magnify"><defs><filter height="300%" id="fkn1s88dzkkrk" width="300%" x="-1" y="-1"><feGaussianBlur result="blurOut" stdDeviation="2.0"/><feColorMatrix in="blurOut" result="blurOut2" type="matrix" values="0 0 0 0 0 0 0 0 0 0 0 0 0 0 0 0 0 0 .4 0"/><feOffset dx="4.0" dy="4.0" in="blurOut2" result="blurOut3"/><feBlend in="SourceGraphic" in2="blurOut3" mode="normal"/></filter></defs><g><ellipse cx="67.5" cy="18" fill="#000000" filter="url(#fkn1s88dzkkrk)" rx="10" ry="10" style="stroke: none; stroke-width: 1.0;"/><rect fill="#FEFECE" filter="url(#fkn1s88dzkkrk)" height="65.6001" rx="12.5" ry="12.5" style="stroke: #A80036; stroke-width: 1.5;" width="123" x="6" y="88"/><line style="stroke: #A80036; stroke-width: 1.5;" x1="6" x2="129" y1="114.7999" y2="114.7999"/><text fill="#000000" font-family="sans-serif" font-size="14" lengthAdjust="spacingAndGlyphs" textLength="40" x="47.5" y="106.9999">State1</text><text fill="#000000" font-family="sans-serif" font-size="12" lengthAdjust="spacingAndGlyphs" textLength="72" x="11" y="131.8">this is a string</text><text fill="#000000" font-family="sans-serif" font-size="12" lengthAdjust="spacingAndGlyphs" textLength="103" x="11" y="146.2001">this is another string</text><ellipse cx="130.5" cy="224" fill="none" filter="url(#fkn1s88dzkkrk)" rx="10" ry="10" style="stroke: #000000; stroke-width: 1.0;"/><ellipse cx="131" cy="224.5" fill="#000000" rx="6" ry="6" style="stroke: none; stroke-width: 1.0;"/><rect fill="#FEFECE" filter="url(#fkn1s88dzkkrk)" height="50" rx="12.5" ry="12.5" style="stroke: #A80036; stroke-width: 1.5;" width="60" x="164.5" y="96"/><line style="stroke: #A80036; stroke-width: 1.5;" x1="164.5" x2="224.5" y1="122.7999" y2="122.7999"/><text fill="#000000" font-family="sans-serif" font-size="14" lengthAdjust="spacingAndGlyphs" textLength="40" x="174.5" y="114.9999">State2</text><!--MD5=[60533a5dc91355c93bf187ba4549d745]
link *start to State1--><path d="M67.5,28.32 C67.5,40.55 67.5,62.75 67.5,82.25 " fill="none" id="*start-&gt;State1" style="stroke: #A80036; stroke-width: 1.0;"/><polygon fill="#A80036" points="67.5,87.66,71.5,78.66,67.5,82.66,63.5,78.66,67.5,87.66" style="stroke: #A80036; stroke-width: 1.0;"/><!--MD5=[ca1046a354e184ac9d197a073cc82934]
link State1 to *end--><path d="M87.61,154.23 C99.64,173.53 114.24,196.94 122.93,210.86 " fill="none" id="State1-&gt;*end" style="stroke: #A80036; stroke-width: 1.0;"/><polygon fill="#A80036" points="125.64,215.2,124.2768,205.4459,122.9964,210.956,117.4864,209.6757,125.64,215.2" style="stroke: #A80036; stroke-width: 1.0;"/><!--MD5=[dc702cd49c4e27e6abb2620dc4bb28d8]
link State1 to State2--><path d="M129.02,121 C139.04,121 149.06,121 159.08,121 " fill="none" id="State1-&gt;State2" style="stroke: #A80036; stroke-width: 1.0;"/><polygon fill="#A80036" points="164.32,121,155.32,117,159.32,121,155.32,125,164.32,121" style="stroke: #A80036; stroke-width: 1.0;"/><!--MD5=[37ebb224bae70bf8df0e6bab9d19d55b]
link State2 to *end--><path d="M179.17,146.19 C166.3,166.5 148.44,194.69 138.32,210.66 " fill="none" id="State2-&gt;*end" style="stroke: #A80036; stroke-width: 1.0;"/><polygon fill="#A80036" points="135.44,215.2,143.6286,209.7276,138.1105,210.9729,136.8652,205.4548,135.44,215.2" style="stroke: #A80036; stroke-width: 1.0;"/><!--MD5=[26389b60e22131c2b1e6a1166f89fd5f]
@startuml
[*] - -> State1
State1 - -> [*]
State1 : this is a string
State1 : this is another string

State1 -> State2
State2 - -> [*]
@enduml

PlantUML version 1.2020.08(Sun Apr 26 14:08:22 GMT 2020)
(GPL source distribution)
Java Runtime: OpenJDK Runtime Environment
JVM: OpenJDK 64-Bit Server VM
Java Version: 11.0.6+10
Operating System: Linux
Default Encoding: UTF-8
Language: en
Country: US
--></g></svg>