<?xml version="1.0" encoding="UTF-8" standalone="no"?><svg xmlns="http://www.w3.org/2000/svg" xmlns:xlink="http://www.w3.org/1999/xlink" contentScriptType="application/ecmascript" contentStyleType="text/css" height="243px" preserveAspectRatio="none" style="width:422px;height:243px;" version="1.1" viewBox="0 0 422 243" width="422px" zoomAndPan="magnify"><defs><filter height="300%" id="fmkp5bl01n2z" width="300%" x="-1" y="-1"><feGaussianBlur result="blurOut" stdDeviation="2.0"/><feColorMatrix in="blurOut" result="blurOut2" type="matrix" values="0 0 0 0 0 0 0 0 0 0 0 0 0 0 0 0 0 0 .4 0"/><feOffset dx="4.0" dy="4.0" in="blurOut2" result="blurOut3"/><feBlend in="SourceGraphic" in2="blurOut3" mode="normal"/></filter></defs><g><!--MD5=[1a7c909d8ac09fc782f5eb680a232d5b]
cluster Classic Collections--><polygon fill="#DDDDDD" filter="url(#fmkp5bl01n2z)" points="22,24,160,24,167,46.7999,170,46.7999,170,231,22,231,22,24" style="stroke: #000000; stroke-width: 1.5;"/><line style="stroke: #000000; stroke-width: 1.5;" x1="22" x2="167" y1="46.7999" y2="46.7999"/><text fill="#000000" font-family="sans-serif" font-size="14" font-weight="bold" lengthAdjust="spacingAndGlyphs" textLength="132" x="26" y="39.9999">Classic Collections</text><!--MD5=[02e9e194a0548f773f3aa466798987a4]
cluster net.sourceforge.plantuml--><polygon fill="#FFFFFF" filter="url(#fmkp5bl01n2z)" points="194,132,372,132,379,154.7999,400,154.7999,400,231,194,231,194,132" style="stroke: #000000; stroke-width: 1.5;"/><line style="stroke: #000000; stroke-width: 1.5;" x1="194" x2="379" y1="154.7999" y2="154.7999"/><text fill="#000000" font-family="sans-serif" font-size="14" font-weight="bold" lengthAdjust="spacingAndGlyphs" textLength="172" x="198" y="147.9999">net.sourceforge.plantuml</text><!--MD5=[aa7f586532e18719e6cefa70fc650583]
class Object--><rect fill="#FEFECE" filter="url(#fmkp5bl01n2z)" height="48" id="Object" style="stroke: #A80036; stroke-width: 1.5;" width="66" x="84" y="59"/><ellipse cx="99" cy="75" fill="#ADD1B2" rx="11" ry="11" style="stroke: #A80036; stroke-width: 1.0;"/><path d="M98.3594,78.7813 Q99.1563,78.7813 99.7188,78.5938 Q100.2969,78.3906 100.5313,78.1719 Q100.7813,77.9375 101.0156,77.75 Q101.2656,77.5469 101.4844,77.5469 Q101.8281,77.5469 102.0781,77.8125 Q102.3438,78.0625 102.3438,78.3906 Q102.3438,79.125 101.1719,79.8125 Q100.0156,80.4844 98.3125,80.4844 Q96.1563,80.4844 94.7344,79.2188 Q93.3125,77.9531 93.3125,76.0156 L93.3125,74.8906 Q93.3125,72.8594 94.6406,71.4844 Q95.9688,70.0938 97.9375,70.0938 Q99.125,70.0938 100.3438,70.6719 L100.5156,70.75 Q100.8125,70.3438 101.2344,70.3438 Q101.7188,70.3438 101.8906,70.6406 Q102.0781,70.9219 102.0781,71.4688 L102.0781,72.8906 Q102.0781,74.0156 101.2344,74.0156 Q100.9219,74.0156 100.7188,73.8438 Q100.5313,73.6719 100.4844,73.5313 Q100.4531,73.375 100.4063,73.1094 Q100.2969,72.5938 99.7813,72.2813 Q99.2656,71.9688 98.8125,71.8906 Q98.375,71.7969 98,71.7969 Q96.7188,71.7969 95.8594,72.6719 Q95.0156,73.5469 95.0156,74.8906 L95.0156,75.9844 Q95.0156,77.2656 95.9219,78.0313 Q96.8281,78.7813 98.3594,78.7813 Z "/><text fill="#000000" font-family="sans-serif" font-size="12" lengthAdjust="spacingAndGlyphs" textLength="34" x="113" y="79.8">Object</text><line style="stroke: #A80036; stroke-width: 1.5;" x1="85" x2="149" y1="91" y2="91"/><line style="stroke: #A80036; stroke-width: 1.5;" x1="85" x2="149" y1="99" y2="99"/><!--MD5=[ab8871ed637f40707b866ba6597734bc]
class ArrayList--><rect fill="#FEFECE" filter="url(#fmkp5bl01n2z)" height="48" id="ArrayList" style="stroke: #A80036; stroke-width: 1.5;" width="80" x="74" y="167"/><ellipse cx="89" cy="183" fill="#ADD1B2" rx="11" ry="11" style="stroke: #A80036; stroke-width: 1.0;"/><path d="M88.3594,186.7813 Q89.1563,186.7813 89.7188,186.5938 Q90.2969,186.3906 90.5313,186.1719 Q90.7813,185.9375 91.0156,185.75 Q91.2656,185.5469 91.4844,185.5469 Q91.8281,185.5469 92.0781,185.8125 Q92.3438,186.0625 92.3438,186.3906 Q92.3438,187.125 91.1719,187.8125 Q90.0156,188.4844 88.3125,188.4844 Q86.1563,188.4844 84.7344,187.2188 Q83.3125,185.9531 83.3125,184.0156 L83.3125,182.8906 Q83.3125,180.8594 84.6406,179.4844 Q85.9688,178.0938 87.9375,178.0938 Q89.125,178.0938 90.3438,178.6719 L90.5156,178.75 Q90.8125,178.3438 91.2344,178.3438 Q91.7188,178.3438 91.8906,178.6406 Q92.0781,178.9219 92.0781,179.4688 L92.0781,180.8906 Q92.0781,182.0156 91.2344,182.0156 Q90.9219,182.0156 90.7188,181.8438 Q90.5313,181.6719 90.4844,181.5313 Q90.4531,181.375 90.4063,181.1094 Q90.2969,180.5938 89.7813,180.2813 Q89.2656,179.9688 88.8125,179.8906 Q88.375,179.7969 88,179.7969 Q86.7188,179.7969 85.8594,180.6719 Q85.0156,181.5469 85.0156,182.8906 L85.0156,183.9844 Q85.0156,185.2656 85.9219,186.0313 Q86.8281,186.7813 88.3594,186.7813 Z "/><text fill="#000000" font-family="sans-serif" font-size="12" lengthAdjust="spacingAndGlyphs" textLength="48" x="103" y="187.8">ArrayList</text><line style="stroke: #A80036; stroke-width: 1.5;" x1="75" x2="153" y1="199" y2="199"/><line style="stroke: #A80036; stroke-width: 1.5;" x1="75" x2="153" y1="207" y2="207"/><!--MD5=[060322837cf907fb29556f3e6b48a9e1]
class Demo1--><rect fill="#FEFECE" filter="url(#fmkp5bl01n2z)" height="48" id="Demo1" style="stroke: #A80036; stroke-width: 1.5;" width="69" x="210.5" y="167"/><ellipse cx="225.5" cy="183" fill="#ADD1B2" rx="11" ry="11" style="stroke: #A80036; stroke-width: 1.0;"/><path d="M224.8594,186.7813 Q225.6563,186.7813 226.2188,186.5938 Q226.7969,186.3906 227.0313,186.1719 Q227.2813,185.9375 227.5156,185.75 Q227.7656,185.5469 227.9844,185.5469 Q228.3281,185.5469 228.5781,185.8125 Q228.8438,186.0625 228.8438,186.3906 Q228.8438,187.125 227.6719,187.8125 Q226.5156,188.4844 224.8125,188.4844 Q222.6563,188.4844 221.2344,187.2188 Q219.8125,185.9531 219.8125,184.0156 L219.8125,182.8906 Q219.8125,180.8594 221.1406,179.4844 Q222.4688,178.0938 224.4375,178.0938 Q225.625,178.0938 226.8438,178.6719 L227.0156,178.75 Q227.3125,178.3438 227.7344,178.3438 Q228.2188,178.3438 228.3906,178.6406 Q228.5781,178.9219 228.5781,179.4688 L228.5781,180.8906 Q228.5781,182.0156 227.7344,182.0156 Q227.4219,182.0156 227.2188,181.8438 Q227.0313,181.6719 226.9844,181.5313 Q226.9531,181.375 226.9063,181.1094 Q226.7969,180.5938 226.2813,180.2813 Q225.7656,179.9688 225.3125,179.8906 Q224.875,179.7969 224.5,179.7969 Q223.2188,179.7969 222.3594,180.6719 Q221.5156,181.5469 221.5156,182.8906 L221.5156,183.9844 Q221.5156,185.2656 222.4219,186.0313 Q223.3281,186.7813 224.8594,186.7813 Z "/><text fill="#000000" font-family="sans-serif" font-size="12" lengthAdjust="spacingAndGlyphs" textLength="37" x="239.5" y="187.8">Demo1</text><line style="stroke: #A80036; stroke-width: 1.5;" x1="211.5" x2="278.5" y1="199" y2="199"/><line style="stroke: #A80036; stroke-width: 1.5;" x1="211.5" x2="278.5" y1="207" y2="207"/><!--MD5=[a1f53e37d9ee92029b24542d0dfb95ad]
class Demo2--><rect fill="#FEFECE" filter="url(#fmkp5bl01n2z)" height="48" id="Demo2" style="stroke: #A80036; stroke-width: 1.5;" width="69" x="314.5" y="167"/><ellipse cx="329.5" cy="183" fill="#ADD1B2" rx="11" ry="11" style="stroke: #A80036; stroke-width: 1.0;"/><path d="M328.8594,186.7813 Q329.6563,186.7813 330.2188,186.5938 Q330.7969,186.3906 331.0313,186.1719 Q331.2813,185.9375 331.5156,185.75 Q331.7656,185.5469 331.9844,185.5469 Q332.3281,185.5469 332.5781,185.8125 Q332.8438,186.0625 332.8438,186.3906 Q332.8438,187.125 331.6719,187.8125 Q330.5156,188.4844 328.8125,188.4844 Q326.6563,188.4844 325.2344,187.2188 Q323.8125,185.9531 323.8125,184.0156 L323.8125,182.8906 Q323.8125,180.8594 325.1406,179.4844 Q326.4688,178.0938 328.4375,178.0938 Q329.625,178.0938 330.8438,178.6719 L331.0156,178.75 Q331.3125,178.3438 331.7344,178.3438 Q332.2188,178.3438 332.3906,178.6406 Q332.5781,178.9219 332.5781,179.4688 L332.5781,180.8906 Q332.5781,182.0156 331.7344,182.0156 Q331.4219,182.0156 331.2188,181.8438 Q331.0313,181.6719 330.9844,181.5313 Q330.9531,181.375 330.9063,181.1094 Q330.7969,180.5938 330.2813,180.2813 Q329.7656,179.9688 329.3125,179.8906 Q328.875,179.7969 328.5,179.7969 Q327.2188,179.7969 326.3594,180.6719 Q325.5156,181.5469 325.5156,182.8906 L325.5156,183.9844 Q325.5156,185.2656 326.4219,186.0313 Q327.3281,186.7813 328.8594,186.7813 Z "/><text fill="#000000" font-family="sans-serif" font-size="12" lengthAdjust="spacingAndGlyphs" textLength="37" x="343.5" y="187.8">Demo2</text><line style="stroke: #A80036; stroke-width: 1.5;" x1="315.5" x2="382.5" y1="199" y2="199"/><line style="stroke: #A80036; stroke-width: 1.5;" x1="315.5" x2="382.5" y1="207" y2="207"/><!--MD5=[78ed3d54c6ad96fb6434a4e45aa4b5f0]
reverse link Object to ArrayList--><path d="M115.78,127.02 C115.4,140.58 114.99,155.04 114.66,166.68 " fill="none" id="Object&lt;-ArrayList" style="stroke: #A80036; stroke-width: 1.0;"/><polygon fill="none" points="108.79,126.79,116.35,107,122.78,127.19,108.79,126.79" style="stroke: #A80036; stroke-width: 1.0;"/><!--MD5=[48a35d8a1517b475c0933e49f0163cea]
reverse link Object to Demo1--><path d="M164.4,119.49 C166.3,121 168.17,122.51 170,124 C186.94,137.81 205.37,154.02 219.72,166.91 " fill="none" id="Object&lt;-Demo1" style="stroke: #A80036; stroke-width: 1.0;"/><polygon fill="none" points="159.93,124.88,148.41,107.09,168.5,113.82,159.93,124.88" style="stroke: #A80036; stroke-width: 1.0;"/><!--MD5=[27e2771ea67e3162b3350a04b0334c4f]
reverse link Demo1 to Demo2--><path d="M292.56,191 C299.79,191 307.03,191 314.27,191 " fill="none" id="Demo1&lt;-Demo2" style="stroke: #A80036; stroke-width: 1.0;"/><polygon fill="#A80036" points="279.53,191,285.53,195,291.53,191,285.53,187,279.53,191" style="stroke: #A80036; stroke-width: 1.0;"/><!--MD5=[338e87112c45dbb387de42585902522a]
@startuml
package "Classic Collections" #DDDDDD {
  Object <|- - ArrayList
}

package net.sourceforge.plantuml {
  Object <|- - Demo1
  Demo1 *- Demo2
}
@enduml

PlantUML version 1.2020.08(Sun Apr 26 14:08:22 GMT 2020)
(GPL source distribution)
Java Runtime: OpenJDK Runtime Environment
JVM: OpenJDK 64-Bit Server VM
Java Version: 11.0.6+10
Operating System: Linux
Default Encoding: UTF-8
Language: en
Country: US
--></g></svg>