<?xml version="1.0" encoding="UTF-8" standalone="no"?><svg xmlns="http://www.w3.org/2000/svg" xmlns:xlink="http://www.w3.org/1999/xlink" contentScriptType="application/ecmascript" contentStyleType="text/css" height="283px" preserveAspectRatio="none" style="width:334px;height:283px;" version="1.1" viewBox="0 0 334 283" width="334px" zoomAndPan="magnify"><defs><filter height="300%" id="f86piaijiism8" width="300%" x="-1" y="-1"><feGaussianBlur result="blurOut" stdDeviation="2.0"/><feColorMatrix in="blurOut" result="blurOut2" type="matrix" values="0 0 0 0 0 0 0 0 0 0 0 0 0 0 0 0 0 0 .4 0"/><feOffset dx="4.0" dy="4.0" in="blurOut2" result="blurOut3"/><feBlend in="SourceGraphic" in2="blurOut3" mode="normal"/></filter></defs><g><line style="stroke: #A80036; stroke-width: 1.0; stroke-dasharray: 5.0,5.0;" x1="23" x2="23" y1="86.7999" y2="195.6"/><line style="stroke: #A80036; stroke-width: 1.0; stroke-dasharray: 5.0,5.0;" x1="188.5" x2="188.5" y1="86.7999" y2="195.6"/><line style="stroke: #A80036; stroke-width: 1.0; stroke-dasharray: 5.0,5.0;" x1="274.5" x2="274.5" y1="86.7999" y2="195.6"/><text fill="#000000" font-family="sans-serif" font-size="14" lengthAdjust="spacingAndGlyphs" textLength="24" x="8" y="83.9999">Bob</text><ellipse cx="23" cy="13" fill="#FF0000" filter="url(#f86piaijiism8)" rx="8" ry="8" style="stroke: #A80036; stroke-width: 2.0;"/><path d="M23,21 L23,48 M10,29 L36,29 M23,48 L10,63 M23,48 L36,63 " fill="none" filter="url(#f86piaijiism8)" style="stroke: #A80036; stroke-width: 2.0;"/><text fill="#000000" font-family="sans-serif" font-size="14" lengthAdjust="spacingAndGlyphs" textLength="24" x="8" y="208.5999">Bob</text><ellipse cx="23" cy="221.3999" fill="#FF0000" filter="url(#f86piaijiism8)" rx="8" ry="8" style="stroke: #A80036; stroke-width: 2.0;"/><path d="M23,229.3999 L23,256.3999 M10,237.3999 L36,237.3999 M23,256.3999 L10,271.3999 M23,256.3999 L36,271.3999 " fill="none" filter="url(#f86piaijiism8)" style="stroke: #A80036; stroke-width: 2.0;"/><rect fill="#FEFECE" filter="url(#f86piaijiism8)" height="30.7999" style="stroke: #A80036; stroke-width: 1.5;" width="43" x="165.5" y="51"/><text fill="#000000" font-family="sans-serif" font-size="14" lengthAdjust="spacingAndGlyphs" textLength="29" x="172.5" y="71.9999">Alice</text><rect fill="#FEFECE" filter="url(#f86piaijiism8)" height="30.7999" style="stroke: #A80036; stroke-width: 1.5;" width="43" x="165.5" y="194.6"/><text fill="#000000" font-family="sans-serif" font-size="14" lengthAdjust="spacingAndGlyphs" textLength="29" x="172.5" y="215.5999">Alice</text><rect fill="#99FF99" filter="url(#f86piaijiism8)" height="47.5999" style="stroke: #A80036; stroke-width: 1.5;" width="101" x="222.5" y="34.2001"/><text fill="#000000" font-family="sans-serif" font-size="14" lengthAdjust="spacingAndGlyphs" textLength="87" x="229.5" y="55.2">I have a really</text><text fill="#000000" font-family="sans-serif" font-size="14" lengthAdjust="spacingAndGlyphs" textLength="64" x="241" y="71.9999">long name</text><rect fill="#99FF99" filter="url(#f86piaijiism8)" height="47.5999" style="stroke: #A80036; stroke-width: 1.5;" width="101" x="222.5" y="194.6"/><text fill="#000000" font-family="sans-serif" font-size="14" lengthAdjust="spacingAndGlyphs" textLength="87" x="229.5" y="215.5999">I have a really</text><text fill="#000000" font-family="sans-serif" font-size="14" lengthAdjust="spacingAndGlyphs" textLength="64" x="241" y="232.3998">long name</text><polygon fill="#A80036" points="34,114.3999,24,118.3999,34,122.3999,30,118.3999" style="stroke: #A80036; stroke-width: 1.0;"/><line style="stroke: #A80036; stroke-width: 1.0;" x1="28" x2="188" y1="118.3999" y2="118.3999"/><text fill="#000000" font-family="sans-serif" font-size="13" lengthAdjust="spacingAndGlyphs" textLength="133" x="40" y="113.7999">Authentication Request</text><polygon fill="#A80036" points="177,144,187,148,177,152,181,148" style="stroke: #A80036; stroke-width: 1.0;"/><line style="stroke: #A80036; stroke-width: 1.0;" x1="23" x2="183" y1="148" y2="148"/><text fill="#000000" font-family="sans-serif" font-size="13" lengthAdjust="spacingAndGlyphs" textLength="142" x="30" y="143.4">Authentication Response</text><polygon fill="#A80036" points="263,173.6,273,177.6,263,181.6,267,177.6" style="stroke: #A80036; stroke-width: 1.0;"/><line style="stroke: #A80036; stroke-width: 1.0;" x1="23" x2="269" y1="177.6" y2="177.6"/><text fill="#000000" font-family="sans-serif" font-size="13" lengthAdjust="spacingAndGlyphs" textLength="87" x="30" y="173">Log transaction</text><!--MD5=[bbceb87f22b18f54cdcac71288dd687a]
@startuml
actor Bob #red
participant Alice
participant "I have a really\nlong name" as L #99FF99

Alice->Bob: Authentication Request
Bob->Alice: Authentication Response
Bob->L: Log transaction
@enduml

PlantUML version 1.2020.08(Sun Apr 26 14:08:22 GMT 2020)
(GPL source distribution)
Java Runtime: OpenJDK Runtime Environment
JVM: OpenJDK 64-Bit Server VM
Java Version: 11.0.6+10
Operating System: Linux
Default Encoding: UTF-8
Language: en
Country: US
--></g></svg>