<?xml version="1.0" encoding="UTF-8" standalone="no"?>
<!DOCTYPE svg PUBLIC "-//W3C//DTD SVG 1.1//EN"
 "http://www.w3.org/Graphics/SVG/1.1/DTD/svg11.dtd">
<!-- Generated by graphviz version 2.42.3 ()
 -->
<!-- Title: G Pages: 1 -->
<svg width="126pt" height="188pt"
 viewBox="0.00 0.00 126.00 188.00" xmlns="http://www.w3.org/2000/svg" xmlns:xlink="http://www.w3.org/1999/xlink">
<g id="graph0" class="graph" transform="scale(1 1) rotate(0) translate(4 184)">
<title>G</title>
<polygon fill="white" stroke="transparent" points="-4,4 -4,-184 122,-184 122,4 -4,4"/>
<!-- A -->
<g id="node1" class="node">
<title>A</title>
<ellipse fill="none" stroke="black" cx="91" cy="-162" rx="27" ry="18"/>
<text text-anchor="middle" x="91" y="-158.3" font-family="Times,serif" font-size="14.00">A</text>
</g>
<!-- B -->
<g id="node2" class="node">
<title>B</title>
<ellipse fill="none" stroke="black" cx="27" cy="-90" rx="27" ry="18"/>
<text text-anchor="middle" x="27" y="-86.3" font-family="Times,serif" font-size="14.00">B</text>
</g>
<!-- A&#45;&gt;B -->
<g id="edge1" class="edge">
<title>A&#45;&gt;B</title>
<path fill="none" stroke="red" d="M77.43,-146.15C66.57,-134.28 51.41,-117.7 40.55,-105.82"/>
</g>
<!-- C -->
<g id="node3" class="node">
<title>C</title>
<ellipse fill="none" stroke="black" cx="59" cy="-18" rx="27" ry="18"/>
<text text-anchor="middle" x="59" y="-14.3" font-family="Times,serif" font-size="14.00">C</text>
</g>
<!-- B&#45;&gt;C -->
<g id="edge2" class="edge">
<title>B&#45;&gt;C</title>
<path fill="none" stroke="red" d="M28.99,-71.7C33.06,-60.2 39.98,-45.24 46.37,-34.2"/>
</g>
<!-- B&#45;&gt;C -->
<g id="edge4" class="edge">
<title>B&#45;&gt;C</title>
<path fill="none" stroke="blue" d="M39.62,-73.81C44.39,-65.57 49.45,-55.15 53.41,-45.62"/>
<polygon fill="blue" stroke="blue" points="56.73,-46.72 57.07,-36.13 50.2,-44.2 56.73,-46.72"/>
</g>
<!-- C&#45;&gt;A -->
<g id="edge3" class="edge">
<title>C&#45;&gt;A</title>
<path fill="none" stroke="red" d="M58.31,-36.43C61.66,-64.11 73.79,-117.76 82.84,-144.71"/>
</g>
<!-- C&#45;&gt;A -->
<g id="edge5" class="edge">
<title>C&#45;&gt;A</title>
<path fill="none" stroke="blue" d="M67.17,-35.31C75.25,-59.41 85.8,-104.81 90.34,-133.94"/>
<polygon fill="blue" stroke="blue" points="86.88,-134.45 91.72,-143.87 93.81,-133.48 86.88,-134.45"/>
</g>
</g>
</svg>
