<?xml version="1.0" encoding="UTF-8" standalone="no"?>
<!DOCTYPE svg PUBLIC "-//W3C//DTD SVG 1.1//EN"
 "http://www.w3.org/Graphics/SVG/1.1/DTD/svg11.dtd">
<!-- Generated by graphviz version 2.42.3 ()
 -->
<!-- Title: G Pages: 1 -->
<svg width="196pt" height="335pt"
 viewBox="0.00 0.00 196.00 335.00" xmlns="http://www.w3.org/2000/svg" xmlns:xlink="http://www.w3.org/1999/xlink">
<g id="graph0" class="graph" transform="scale(1 1) rotate(0) translate(4 331)">
<title>G</title>
<polygon fill="white" stroke="transparent" points="-4,4 -4,-331 192,-331 192,4 -4,4"/>
<g id="clust1" class="cluster">
<title>cluster_0</title>
<polygon fill="lightgrey" stroke="lightgrey" points="8,-64 8,-283 98,-283 98,-64 8,-64"/>
<text text-anchor="middle" x="53" y="-267.8" font-family="Times,serif" font-size="14.00">process #1</text>
</g>
<g id="clust2" class="cluster">
<title>cluster_1</title>
<polygon fill="none" stroke="blue" points="106,-64 106,-283 180,-283 180,-64 106,-64"/>
<text text-anchor="middle" x="143" y="-267.8" font-family="Times,serif" font-size="14.00">process #2</text>
</g>
<!-- a0 -->
<g id="node1" class="node">
<title>a0</title>
<ellipse fill="white" stroke="white" cx="63" cy="-234" rx="27" ry="18"/>
<text text-anchor="middle" x="63" y="-230.3" font-family="Times,serif" font-size="14.00">a0</text>
</g>
<!-- a1 -->
<g id="node2" class="node">
<title>a1</title>
<ellipse fill="white" stroke="white" cx="63" cy="-162" rx="27" ry="18"/>
<text text-anchor="middle" x="63" y="-158.3" font-family="Times,serif" font-size="14.00">a1</text>
</g>
<!-- a0&#45;&gt;a1 -->
<g id="edge1" class="edge">
<title>a0&#45;&gt;a1</title>
<path fill="none" stroke="black" d="M63,-215.7C63,-207.98 63,-198.71 63,-190.11"/>
<polygon fill="black" stroke="black" points="66.5,-190.1 63,-180.1 59.5,-190.1 66.5,-190.1"/>
</g>
<!-- a2 -->
<g id="node3" class="node">
<title>a2</title>
<ellipse fill="white" stroke="white" cx="63" cy="-90" rx="27" ry="18"/>
<text text-anchor="middle" x="63" y="-86.3" font-family="Times,serif" font-size="14.00">a2</text>
</g>
<!-- a1&#45;&gt;a2 -->
<g id="edge2" class="edge">
<title>a1&#45;&gt;a2</title>
<path fill="none" stroke="black" d="M63,-143.7C63,-135.98 63,-126.71 63,-118.11"/>
<polygon fill="black" stroke="black" points="66.5,-118.1 63,-108.1 59.5,-118.1 66.5,-118.1"/>
</g>
<!-- b2 -->
<g id="node6" class="node">
<title>b2</title>
<ellipse fill="lightgrey" stroke="black" cx="141" cy="-90" rx="27" ry="18"/>
<text text-anchor="middle" x="141" y="-86.3" font-family="Times,serif" font-size="14.00">b2</text>
</g>
<!-- a1&#45;&gt;b2 -->
<g id="edge7" class="edge">
<title>a1&#45;&gt;b2</title>
<path fill="none" stroke="black" d="M78.41,-147.17C89.73,-137.01 105.31,-123.03 118.09,-111.56"/>
<polygon fill="black" stroke="black" points="120.52,-114.09 125.62,-104.8 115.84,-108.88 120.52,-114.09"/>
</g>
<!-- a2&#45;&gt;a0 -->
<g id="edge9" class="edge">
<title>a2&#45;&gt;a0</title>
<path fill="none" stroke="black" d="M49.25,-105.93C41.04,-115.9 31.38,-129.75 27,-144 22.3,-159.29 22.3,-164.71 27,-180 30.29,-190.69 36.54,-201.15 42.93,-209.92"/>
<polygon fill="black" stroke="black" points="40.35,-212.31 49.25,-218.07 45.88,-208.02 40.35,-212.31"/>
</g>
<!-- end -->
<g id="node8" class="node">
<title>end</title>
<polygon fill="none" stroke="black" points="120,-36 84,-36 84,0 120,0 120,-36"/>
<polyline fill="none" stroke="black" points="96,-36 84,-24 "/>
<polyline fill="none" stroke="black" points="84,-12 96,0 "/>
<polyline fill="none" stroke="black" points="108,0 120,-12 "/>
<polyline fill="none" stroke="black" points="120,-24 108,-36 "/>
<text text-anchor="middle" x="102" y="-14.3" font-family="Times,serif" font-size="14.00">end</text>
</g>
<!-- a2&#45;&gt;end -->
<g id="edge10" class="edge">
<title>a2&#45;&gt;end</title>
<path fill="none" stroke="black" d="M72.05,-72.76C76.64,-64.53 82.32,-54.32 87.51,-45.02"/>
<polygon fill="black" stroke="black" points="90.65,-46.56 92.46,-36.12 84.53,-43.16 90.65,-46.56"/>
</g>
<!-- b0 -->
<g id="node4" class="node">
<title>b0</title>
<ellipse fill="lightgrey" stroke="black" cx="141" cy="-234" rx="27" ry="18"/>
<text text-anchor="middle" x="141" y="-230.3" font-family="Times,serif" font-size="14.00">b0</text>
</g>
<!-- b1 -->
<g id="node5" class="node">
<title>b1</title>
<ellipse fill="lightgrey" stroke="black" cx="141" cy="-162" rx="27" ry="18"/>
<text text-anchor="middle" x="141" y="-158.3" font-family="Times,serif" font-size="14.00">b1</text>
</g>
<!-- b0&#45;&gt;b1 -->
<g id="edge3" class="edge">
<title>b0&#45;&gt;b1</title>
<path fill="none" stroke="black" d="M141,-215.7C141,-207.98 141,-198.71 141,-190.11"/>
<polygon fill="black" stroke="black" points="144.5,-190.1 141,-180.1 137.5,-190.1 144.5,-190.1"/>
</g>
<!-- b1&#45;&gt;a2 -->
<g id="edge8" class="edge">
<title>b1&#45;&gt;a2</title>
<path fill="none" stroke="black" d="M125.59,-147.17C114.27,-137.01 98.69,-123.03 85.91,-111.56"/>
<polygon fill="black" stroke="black" points="88.16,-108.88 78.38,-104.8 83.48,-114.09 88.16,-108.88"/>
</g>
<!-- b1&#45;&gt;b2 -->
<g id="edge4" class="edge">
<title>b1&#45;&gt;b2</title>
<path fill="none" stroke="black" d="M141,-143.7C141,-135.98 141,-126.71 141,-118.11"/>
<polygon fill="black" stroke="black" points="144.5,-118.1 141,-108.1 137.5,-118.1 144.5,-118.1"/>
</g>
<!-- b2&#45;&gt;end -->
<g id="edge11" class="edge">
<title>b2&#45;&gt;end</title>
<path fill="none" stroke="black" d="M131.95,-72.76C127.36,-64.53 121.68,-54.32 116.49,-45.02"/>
<polygon fill="black" stroke="black" points="119.47,-43.16 111.54,-36.12 113.35,-46.56 119.47,-43.16"/>
</g>
<!-- start -->
<g id="node7" class="node">
<title>start</title>
<polygon fill="none" stroke="black" points="102,-327 65.47,-309 102,-291 138.53,-309 102,-327"/>
<polyline fill="none" stroke="black" points="76.23,-314.3 76.23,-303.7 "/>
<polyline fill="none" stroke="black" points="91.24,-296.3 112.76,-296.3 "/>
<polyline fill="none" stroke="black" points="127.77,-303.7 127.77,-314.3 "/>
<polyline fill="none" stroke="black" points="112.76,-321.7 91.24,-321.7 "/>
<text text-anchor="middle" x="102" y="-305.3" font-family="Times,serif" font-size="14.00">start</text>
</g>
<!-- start&#45;&gt;a0 -->
<g id="edge5" class="edge">
<title>start&#45;&gt;a0</title>
<path fill="none" stroke="black" d="M94.66,-294.27C89.56,-284.72 82.61,-271.7 76.52,-260.3"/>
<polygon fill="black" stroke="black" points="79.46,-258.39 71.66,-251.22 73.29,-261.69 79.46,-258.39"/>
</g>
<!-- start&#45;&gt;b0 -->
<g id="edge6" class="edge">
<title>start&#45;&gt;b0</title>
<path fill="none" stroke="black" d="M109.34,-294.27C114.44,-284.72 121.39,-271.7 127.48,-260.3"/>
<polygon fill="black" stroke="black" points="130.71,-261.69 132.34,-251.22 124.54,-258.39 130.71,-261.69"/>
</g>
</g>
</svg>
